<svg width="61" height="60" viewBox="0 0 61 60" fill="none" xmlns="http://www.w3.org/2000/svg">
    <g clip-path="url(#clip0_18_151)">
        <path d="M53.1172 0.351578C52.8945 0.574234 52.8828 0.691422 52.9531 1.79298C53.082 4.01955 52.5078 5.66017 51.0664 7.08986C50.6094 7.53517 49.9414 8.08595 49.5664 8.30861L48.8984 8.69533L48.5469 8.39064C47.7148 7.69923 46.3086 7.58205 45.3008 8.14455C45.043 8.28517 43.1562 9.6797 41.1289 11.2383C37.6133 13.9219 37.4141 14.0977 37.1094 14.7305C36.8398 15.2578 36.7812 15.5508 36.7812 16.1836L36.793 16.9688L35.9609 17.0156C35.0117 17.0859 34.1797 17.4375 33.4297 18.1172C32.9727 18.5391 32.2578 19.7813 32.2578 20.168C32.2578 20.6836 32.1523 20.7188 31.5195 20.4024C30.9922 20.1328 30.7578 20.0977 29.7969 20.0977C28.7656 20.1094 28.625 20.1328 27.9219 20.4961C27.5117 20.7188 27.1484 20.8359 27.125 20.7656C27.0195 20.4258 26.3281 19.5352 25.9297 19.2188C25.0859 18.5508 24.4648 18.3399 23.293 18.3399C22.3672 18.3399 22.1562 18.3867 21.5469 18.6797C20.7383 19.0781 19.9648 19.8047 19.6133 20.4961L19.3672 20.9649L18.957 20.6836C17.8438 19.9336 16.1211 19.8164 14.8906 20.4258C13.5898 21.0586 12.6641 22.3711 12.5 23.8008L12.4297 24.457L11.5273 24.4688C10.3789 24.4688 9.5 24.7969 8.71484 25.5C7.63672 26.4727 7.07422 28.1484 7.39062 29.4844L7.49609 29.9766L6.95703 30.0469C5.60937 30.2227 4.29687 31.2305 3.6875 32.5547C3.16016 33.7149 3.32422 35.5899 4.03906 36.5039C4.16797 36.668 4.26172 36.8203 4.23828 36.832C4.21484 36.8438 3.93359 36.9844 3.62891 37.1367C2.83203 37.5352 2.16406 38.25 1.74219 39.1406C1.01562 40.6875 1.35547 42.5391 2.59766 43.7578L3.14844 44.2969L2.63281 44.8477C1.25 46.2891 1.07422 48.4336 2.21094 50.1211C2.67969 50.8008 3.61719 51.5039 4.37891 51.7266C4.94141 51.9024 4.94141 51.8906 4.66016 52.8516C3.99219 55.1133 5.57422 57.5508 8 58.0078C8.97266 58.1953 10.1914 57.9492 10.9297 57.4219L11.2578 57.1875L11.5273 57.7383C11.9141 58.5469 12.8867 59.4609 13.6836 59.7539C14.5859 60.0938 15.957 60.0938 16.8711 59.7422C17.7617 59.4141 18.7461 58.4414 19.1211 57.5391L19.3906 56.8828L19.9883 57.1875C20.5156 57.4336 20.75 57.4805 21.7109 57.4805C22.707 57.4805 22.8945 57.4453 23.5039 57.1406C24.5352 56.6133 25.3906 55.582 25.7422 54.4453C25.8008 54.293 25.8711 54.2578 26.0234 54.3164C26.1289 54.375 26.5156 54.5156 26.8672 54.6445C28.1562 55.1016 29.7852 54.7383 30.9336 53.7422C31.5781 53.1797 32.1758 51.9844 32.2344 51.1055L32.2812 50.4492H33.5352C34.6602 50.4492 34.8359 50.4141 35.4453 50.1211C37.2148 49.2539 38.1992 47.2734 37.7422 45.5156C37.6484 45.1406 37.5312 44.7422 37.4844 44.6367C37.4258 44.4961 37.5312 44.4258 38.0469 44.3086C38.8438 44.1328 39.9688 43.4063 40.3789 42.8086C41 41.9063 41.2109 41.25 41.2109 40.2539C41.2227 39.4336 41.1641 39.2109 40.8359 38.5078C40.6367 38.0742 40.4609 37.6992 40.4609 37.6758C40.4609 37.6641 40.6719 37.5938 40.918 37.5117C41.5156 37.3359 42.5469 36.3867 42.9453 35.6602C43.8242 34.0313 43.5312 32.0156 42.207 30.6914C41.7031 30.1875 40.8008 29.707 40.1328 29.5781C39.793 29.5078 39.7461 29.4609 39.8164 29.25C39.8633 29.1211 39.9219 28.582 39.957 28.0664C40.0273 26.9414 39.7695 26.1094 39.0781 25.2305L38.6445 24.6914L39.2188 24.1524C39.875 23.543 40.4023 22.5352 40.5195 21.668C40.5664 21.3516 40.6133 21.0938 40.6367 21.0938C40.6484 21.0938 40.8594 21.1758 41.082 21.2695C41.9258 21.6211 43.2852 21.4336 44.0938 20.8594C44.4453 20.6133 49.5547 13.5703 49.9883 12.7383C50.3047 12.1289 50.375 11.1094 50.1523 10.4531C49.9883 9.98439 49.9883 9.94923 50.2109 9.83205C50.7617 9.53908 51.957 9.15236 52.7305 9.02345C54.2891 8.76564 56.0586 9.24611 57.6172 10.3594C58.4492 10.9453 58.8477 11.0274 59.2109 10.6641C59.7852 10.0899 59.3984 9.4922 57.8164 8.5547C56.5977 7.82814 55.4844 7.47658 54.207 7.40627C53.6094 7.38283 53.1172 7.32423 53.1172 7.3008C53.1172 7.26564 53.293 6.94923 53.5156 6.58595C53.7383 6.21095 54.0312 5.58986 54.1719 5.1797C54.6992 3.56252 54.7578 1.03127 54.2656 0.410172C53.9844 0.0468903 53.4453 0.0234528 53.1172 0.351578ZM47.293 9.52736C47.75 9.72658 48.5117 10.5469 48.6172 10.957C48.793 11.6719 48.5938 12.0234 45.9102 15.7617C44.457 17.7891 43.1445 19.5234 43.0039 19.6289C42.8633 19.7227 42.5117 19.8047 42.207 19.8047C41.5273 19.8047 41.1523 19.5352 39.6172 17.9766C38.7617 17.0859 38.4688 16.7109 38.4102 16.3945C38.2461 15.5156 38.3984 15.3633 42.1719 12.4688C44.1055 11.0039 45.8633 9.70314 46.0859 9.58595C46.5664 9.32814 46.7891 9.32814 47.293 9.52736ZM37.5078 18.8555C38.7852 19.5 39.2656 20.918 38.6562 22.2188C37.7539 24.1641 34.9648 24.1641 34.0625 22.2188C33.5586 21.1406 33.7344 20.1563 34.6016 19.3242C35.4453 18.4922 36.4883 18.3281 37.5078 18.8555ZM24.2656 20.1094C24.8164 20.332 25.2969 20.7891 25.6016 21.375C25.9648 22.0781 25.8711 23.2617 25.3906 23.9297C24.3594 25.3945 22.1445 25.3828 21.1602 23.8945C20.7852 23.332 20.668 22.3008 20.8906 21.6211C21.0781 21.0469 21.6641 20.4024 22.2383 20.1445C22.8125 19.875 23.6797 19.8633 24.2656 20.1094ZM17.832 21.9141C19.7188 22.875 19.707 25.5352 17.8086 26.5078C17.0938 26.8711 15.9219 26.7774 15.2422 26.3086C14.6562 25.8984 14.0938 24.9024 14.0938 24.2813C14.0938 23.2734 14.6562 22.3594 15.5234 21.9258C16.1797 21.5977 17.2109 21.5977 17.832 21.9141ZM31.1914 22.0664C31.8594 22.5117 32.2578 23.1563 32.3398 23.9297C32.4219 24.7734 32.2344 25.3359 31.6367 25.9805C31.0039 26.6719 30.1602 26.9297 29.2344 26.7188C27.8867 26.4141 26.9609 24.9141 27.3242 23.6484C27.5586 22.8281 27.9688 22.3242 28.6484 21.9844C29.4805 21.5625 30.4648 21.5859 31.1914 22.0664ZM36.8047 25.5C38.6562 26.2734 38.9141 28.8399 37.2617 29.9649C35.5273 31.1367 33.2773 29.9649 33.2773 27.8906C33.2773 26.0625 35.1406 24.7969 36.8047 25.5ZM21.3711 26.168C22.6602 26.8125 24.0781 26.8008 25.3086 26.1328L25.918 25.8047L26.2695 26.4258C26.668 27.1172 27.125 27.5391 27.9453 27.9609C28.9766 28.4883 29.75 28.5352 31.332 28.1719C31.6133 28.1133 31.6484 28.1367 31.707 28.5703C31.8008 29.2852 32.293 30.2695 32.832 30.8086C33.3477 31.3242 34.2383 31.8281 34.918 31.9805C35.2109 32.0391 35.3516 32.1211 35.3164 32.2383C34.9648 33.5625 35.0234 34.3711 35.5156 35.4492L35.8789 36.2109L35.3516 36.4453C33.9102 37.0781 32.8438 38.6719 32.8438 40.1953C32.8438 40.5938 33.0547 41.5313 33.2539 41.9766C33.3125 42.1406 33.2773 42.1875 33.0898 42.1875C32.7266 42.1875 31.707 42.5977 31.1797 42.9609C30.2656 43.5938 29.4453 45.1524 29.4453 46.2422C29.4453 46.6289 29.4336 46.6406 29.1289 46.5586C28.4023 46.3594 27.1836 46.4766 26.4219 46.8164C25.3203 47.3086 24.0664 48.7852 24.0547 49.5938C24.0547 49.8516 24.0312 49.8516 23.4805 49.5703C22.3906 49.0195 20.8789 49.0781 19.6836 49.7109C18.7461 50.2149 18.0664 51.0586 17.6914 52.1719C17.6211 52.3594 17.5508 52.3477 16.9414 52.0547C16.3672 51.7852 16.1094 51.7383 15.2656 51.7383C14.2812 51.7383 14.082 51.7969 12.7812 52.4766C12.7344 52.5 12.5703 52.2656 12.418 51.9492C11.9023 50.9414 10.4258 49.8047 9.61719 49.8047C9.41797 49.8047 9.39453 49.7578 9.46484 49.5352C9.85156 48.3164 9.91016 47.8828 9.79297 47.1445C9.61719 46.1602 9.24219 45.3984 8.58594 44.7656L8.05859 44.25L8.5625 43.7344C8.84375 43.4649 9.21875 42.9258 9.38281 42.5625C9.95703 41.3438 9.75781 39.2813 8.98437 38.4258C8.83203 38.25 8.86719 38.2031 9.45312 37.9219C10.7656 37.2774 11.668 35.8594 11.6797 34.3945C11.6914 33.9492 11.6562 33.4102 11.6094 33.2109C11.5273 32.8477 11.5273 32.8359 12.0898 32.7656C13.9414 32.5195 15.4297 30.9375 15.6758 28.9453L15.7578 28.3008L16.6016 28.3359C18.0781 28.4063 19.5078 27.6328 20.2461 26.3906C20.4453 26.0508 20.6211 25.793 20.6562 25.8164C20.6914 25.8281 21.0078 25.9805 21.3711 26.168ZM12.6055 26.3203C13.3555 26.6953 13.8477 27.3516 14.0352 28.2188C14.3398 29.6602 13.0273 31.1719 11.4687 31.1719C9.14844 31.1602 8.08203 28.3828 9.76953 26.7422C10.4844 26.0508 11.7031 25.8633 12.6055 26.3203ZM40.4023 31.3828C41.7148 32.0274 42.2188 33.6914 41.4805 34.957C41.0352 35.7188 40.3906 36.1289 39.5234 36.1875C38.6328 36.2578 38.0703 36.0586 37.4844 35.4609C36.9922 34.9805 36.7109 34.3125 36.7109 33.6797C36.7109 31.8164 38.7383 30.5508 40.4023 31.3828ZM8.71484 31.957C10.3086 32.7774 10.5781 34.8399 9.24219 36.0703C8.16406 37.0664 6.79297 37.0313 5.76172 35.9883C4.49609 34.7344 4.78906 32.7774 6.34766 31.9688C7.17969 31.5352 7.85937 31.5352 8.71484 31.957ZM38.1875 37.957C38.4453 38.0742 38.8203 38.3672 39.0195 38.6016C40.4258 40.3125 39.2539 42.7734 37.0391 42.7734C34.4258 42.7734 33.5469 39.293 35.832 38.0039C36.4297 37.6641 37.4961 37.6406 38.1875 37.957ZM6.76953 38.5781C8.60937 39.5508 8.55078 42.1758 6.66406 43.1484C5.96094 43.5117 4.77734 43.418 4.10937 42.9375C2.65625 41.9297 2.64453 39.7617 4.07422 38.7656C4.84766 38.2149 5.9375 38.1445 6.76953 38.5781ZM34.7891 44.0508C35.9023 44.5547 36.4766 45.8906 36.1133 47.1211C35.3867 49.5117 31.8359 49.418 31.1914 46.9922C30.6406 44.918 32.8086 43.1484 34.7891 44.0508ZM6.81641 45.4688C7.66016 45.8906 8.23437 46.8516 8.23437 47.8359C8.23437 48.457 7.67187 49.4531 7.09766 49.8516C6.72266 50.1094 6.42969 50.2149 5.90234 50.25C5 50.3203 4.4375 50.1211 3.85156 49.5234C2.79687 48.4805 2.82031 46.9688 3.89844 45.9258C4.74219 45.0938 5.78516 44.9297 6.81641 45.4688ZM29.3633 48.4219C29.6211 48.5742 30.0078 48.9141 30.1953 49.1953C30.6758 49.8633 30.7695 51.0469 30.4062 51.75C29.4102 53.6953 26.7852 53.6953 25.7891 51.75C25.4492 51.082 25.5195 49.8984 25.9648 49.2422C26.7148 48.1055 28.1562 47.7539 29.3633 48.4219ZM22.8711 51.0938C25.25 52.3008 24.3594 55.8984 21.6758 55.8984C19.3789 55.8984 18.2891 53.1563 19.9531 51.5508C20.7969 50.7188 21.8398 50.5547 22.8711 51.0938ZM10.0859 51.7149C11.0117 52.3125 11.457 53.5195 11.1641 54.6094C10.9648 55.3594 10.1094 56.168 9.30078 56.3672C7.71875 56.7422 6.13672 55.5117 6.125 53.9063C6.125 52.8984 6.82812 51.8438 7.76562 51.457C7.92969 51.3867 8.41016 51.3399 8.83203 51.3633C9.44141 51.3867 9.71094 51.457 10.0859 51.7149ZM16.3203 53.5664C17.0234 53.8828 17.2461 54.0938 17.5625 54.7852C18.0781 55.875 17.8438 56.9649 16.9297 57.7969C15.875 58.7461 14.5039 58.6992 13.4961 57.668C13.1445 57.3047 12.9102 56.9297 12.8164 56.5664C12.2305 54.4922 14.3633 52.6758 16.3203 53.5664Z" fill="#C3944F"/>
    </g>
    <defs>
        <clipPath id="clip0_18_151">
            <rect width="60" height="60" fill="white" transform="translate(0.5)"/>
        </clipPath>
    </defs>
</svg>