<svg width="61" height="60" viewBox="0 0 61 60" fill="none" xmlns="http://www.w3.org/2000/svg">
    <g clip-path="url(#clip0_18_131)">
        <path d="M9.74609 4.44141C9.49999 4.62891 9.42968 4.80469 9.3828 5.33203C9.34765 5.68359 9.30077 6 9.27734 6.02344C9.2539 6.04688 8.10546 5.76562 6.72265 5.37891C5.35155 4.99219 4.12109 4.71094 4.01562 4.74609C3.45312 4.92188 3.51171 4.44141 1.96484 21.0352C0.851555 32.918 0.52343 36.9258 0.61718 37.125C0.675773 37.2773 0.910148 37.4648 1.12109 37.5469C1.3203 37.6406 4.47265 38.7188 8.09374 39.9492C11.7266 41.1797 14.7383 42.2109 14.7969 42.2461C14.8437 42.2695 14 45.1055 12.9101 48.5391C11.8203 51.9727 10.9297 54.8906 10.9297 55.0312C10.9297 55.1602 11.0469 55.3828 11.1992 55.5234C11.4687 55.7695 11.5625 55.7812 14.3398 55.7812H17.2109L18.1367 55.207C18.6523 54.9023 21.5469 53.1211 24.582 51.2695C27.6172 49.418 30.1953 47.8477 30.3242 47.7891C30.5234 47.6953 31.6836 48.3633 37.1797 51.7266L43.7891 55.7812H46.6719C49.543 55.7812 49.5664 55.7812 49.8125 55.5117C49.9531 55.3594 50.0703 55.1367 50.0703 55.0078C50.0586 54.8906 49.1797 51.9727 48.0898 48.5391C47 45.1055 46.168 42.2695 46.2266 42.2344C46.2734 42.1992 47.7851 41.6836 49.5781 41.0742C58.4141 38.0977 59.8789 37.5938 60.1133 37.4414C60.2539 37.3477 60.3945 37.1719 60.4414 37.043C60.4766 36.9258 59.8437 29.707 59.0351 21.0234C57.4883 4.44141 57.5469 4.92188 56.9844 4.74609C56.8672 4.71094 55.6484 4.99219 54.2773 5.37891C52.9062 5.76562 51.7461 6.05859 51.7226 6.02344C51.6992 6 51.6523 5.68359 51.6172 5.33203C51.5703 4.80469 51.5 4.62891 51.2539 4.42969C50.9609 4.19531 50.8672 4.19531 48.3125 4.25391C44.2344 4.35938 41.4336 4.80469 38.3516 5.8125C35.832 6.64453 32.8789 8.21484 31.1797 9.62109C30.875 9.86719 30.5703 10.0781 30.5 10.0781C30.4297 10.0781 30.125 9.86719 29.8203 9.62109C28.1094 8.19141 25.2031 6.65625 22.6367 5.8125C19.5664 4.79297 16.7422 4.35938 12.6875 4.25391C10.1328 4.19531 10.0391 4.19531 9.74609 4.44141ZM16.7891 6.15234C21.7578 6.83203 26.1172 8.58984 29.0703 11.0977L29.6797 11.625V25.043V38.4609L29.2461 38.1328C26.1406 35.7656 21.8984 33.7852 18.3711 33.0586C15.957 32.5664 12.957 32.4023 10.4961 32.6133L9.40624 32.7188V32.1914C9.40624 31.9102 9.74609 26.0156 10.168 19.0898C10.5898 12.1641 10.9297 6.35156 10.9297 6.16406V5.82422L13.1914 5.89453C14.4219 5.94141 16.0508 6.05859 16.7891 6.15234ZM50.0703 6.17578C50.0703 6.36328 50.4101 12.1758 50.832 19.1016C51.2539 26.0273 51.5937 31.9219 51.5937 32.2031V32.7188L50.5156 32.6133C48.0547 32.4023 45.1484 32.5664 42.6641 33.0586C39.2305 33.7383 34.9414 35.7305 31.8242 38.0859L31.3203 38.4609V24.9961L31.332 11.543L31.9648 11.0391C36.125 7.71094 41.75 5.94141 48.4062 5.87109L50.0703 5.85938V6.17578ZM7.21484 7.19531C8.23437 7.47656 9.10155 7.73438 9.13671 7.78125C9.18359 7.82812 8.86718 13.7109 8.43359 20.8711C7.8828 30.0703 7.68359 33.9492 7.76562 34.1133C7.95312 34.4531 8.37499 34.5 9.79296 34.3242C11.4219 34.125 14.7148 34.125 16.2031 34.3242C17.5976 34.5234 19.6836 35.0273 21.0664 35.5078C23.5156 36.3633 26.6797 38.1445 28.8359 39.8906L29.6797 40.5703V43.0547V45.5391L26.3164 44.4023C22.8711 43.2422 11.9726 39.5508 6.0664 37.5352C4.26171 36.9258 2.65624 36.3867 2.49218 36.3398C2.24609 36.2578 2.19921 36.1875 2.23437 35.8477C2.30468 34.8398 4.83593 7.5 4.90624 7.05469C4.95312 6.65625 5.01171 6.5625 5.16405 6.60938C5.28124 6.64453 6.1953 6.91406 7.21484 7.19531ZM56.0937 7.05469C56.1523 7.48828 58.6836 34.7695 58.7656 35.8359L58.8008 36.2344L47.082 40.207C40.6367 42.3867 34.4492 44.4961 33.3476 44.8711L31.3203 45.5742V43.0664V40.5586L32.4687 39.668C36.6758 36.3984 41.2344 34.5938 46.2734 34.207C48.0312 34.0664 48.2773 34.0781 52.1914 34.418C52.7656 34.4766 52.8945 34.4414 53.1172 34.2188C53.3516 33.9844 53.375 33.8789 53.3164 33.1758C53.1172 30.8555 51.793 7.85156 51.8633 7.78125C51.9219 7.72266 55.6133 6.63281 55.9531 6.57422C56 6.57422 56.0586 6.78516 56.0937 7.05469ZM28.4258 46.875C28.4726 46.9219 25.8828 48.5742 22.6484 50.543L16.7891 54.1406H14.8555C13.6953 54.1406 12.9219 54.0938 12.9219 54.0234C12.9219 53.9414 16.0859 43.7695 16.3789 42.9258C16.4141 42.8203 18.2773 43.4062 22.3789 44.7891C25.6484 45.8906 28.3789 46.8281 28.4258 46.875ZM46.3672 48.457C47.3047 51.4922 48.0781 54 48.0781 54.0469C48.0781 54.1055 47.2109 54.1406 46.1562 54.1406H44.2226L38.3633 50.543C35.1289 48.5742 32.5156 46.9336 32.5508 46.8984C32.6797 46.7578 44.5039 42.8086 44.5742 42.8789C44.6094 42.9141 45.418 45.4219 46.3672 48.457Z" fill="#C4944F"/>
        <path d="M14.2461 9.03516C14.1055 9.08203 13.9414 9.23438 13.8711 9.36328C13.5195 10.0078 13.918 10.5 14.8789 10.6055C19.2266 11.0742 22.2383 12.0234 24.9805 13.8164C25.7656 14.3203 26 14.3438 26.4336 13.9688C26.6562 13.7695 26.6914 13.3477 26.5156 13.0078C26.3516 12.7031 24.9453 11.8477 23.4687 11.1445C21.4297 10.1836 19.2148 9.55078 16.7305 9.21094C14.7734 8.94141 14.5273 8.92969 14.2461 9.03516Z" fill="#C4944F"/>
        <path d="M13.707 15.4687C13.3203 15.7734 13.2852 16.3008 13.625 16.6172C13.8008 16.7812 14.1992 16.8633 15.3477 16.9687C19.0039 17.332 22.5664 18.4219 25.0156 19.9219C25.3203 20.1211 25.707 20.2734 25.8711 20.2734C26.2695 20.2734 26.6328 19.8867 26.6328 19.4648C26.6328 18.9844 26.2109 18.668 24.3711 17.7656C21.5117 16.3711 18.5938 15.6094 14.8438 15.293C14.1172 15.2344 13.9883 15.2578 13.707 15.4687Z" fill="#C4944F"/>
        <path d="M13.2852 21.7852C12.9922 22.0781 12.957 22.6406 13.2266 22.8984C13.4609 23.1328 13.6484 23.168 15.0898 23.2617C18.3008 23.4609 21.6055 24.3516 24.582 25.793C25.2266 26.1094 25.8125 26.3672 25.8828 26.3672C26.1758 26.3672 26.6328 25.875 26.6328 25.5586C26.6328 25.0781 26.4453 24.9141 25.168 24.2813C22.1211 22.7695 18.5234 21.8438 14.7852 21.6094C13.6133 21.5391 13.5195 21.5508 13.2852 21.7852Z" fill="#C4944F"/>
        <path d="M12.9101 28.0781C12.6289 28.418 12.5586 28.6875 12.7109 29.0039C12.875 29.3789 13.3672 29.5312 14.3984 29.5312C17.0469 29.5312 20.8203 30.3633 23.8203 31.6055C25.6836 32.3672 26.1406 32.4609 26.4336 32.1328C26.7383 31.8047 26.6562 31.1953 26.2812 30.9141C25.8711 30.6094 23.3047 29.5898 21.8984 29.168C19.3906 28.418 17.1992 28.043 14.7383 27.9375C13.2265 27.8672 13.0859 27.8789 12.9101 28.0781Z" fill="#C4944F"/>
        <path d="M45.9688 8.98828C43.5078 9.23438 40.8008 9.82031 39.0195 10.5C37.7422 10.9922 35.7031 12.0352 34.9297 12.6094C34.4492 12.9492 34.3672 13.0664 34.3672 13.4063C34.3672 13.6289 34.4492 13.8633 34.5781 13.9688C35 14.3438 35.2344 14.3203 36.0195 13.8164C38.5742 12.1523 41.8555 11.0625 45.4531 10.6758C46.8711 10.5234 46.9531 10.5 47.1289 10.125C47.3047 9.72656 47.293 9.5625 47.0586 9.28125C46.8125 9 46.543 8.92969 45.9688 8.98828Z" fill="#C4944F"/>
        <path d="M45.8516 15.3164C42.6289 15.5625 39.3828 16.418 36.6289 17.7656C34.7891 18.668 34.3672 18.9844 34.3672 19.4648C34.3672 19.8516 34.7305 20.2734 35.0469 20.2734C35.1641 20.2734 36.0195 19.8867 36.957 19.418C39.6055 18.0703 42.3359 17.2969 45.6172 16.9805C47.3047 16.8164 47.6094 16.6758 47.6094 16.0547C47.6094 15.6445 47.1289 15.2227 46.6836 15.2578C46.5195 15.2695 46.1445 15.293 45.8516 15.3164Z" fill="#C4944F"/>
        <path d="M45.6172 21.6445C41.8789 21.9961 38.6445 22.8867 35.7617 24.3281C34.5195 24.9492 34.3672 25.0898 34.3672 25.6055C34.3672 25.875 34.8477 26.3672 35.1055 26.3672C35.1758 26.3672 35.9023 26.0508 36.7109 25.6641C39.5117 24.3398 42.418 23.5664 45.5 23.3086C47.4336 23.1562 47.5508 23.1328 47.7734 22.8984C48.0313 22.6406 48.0078 22.0781 47.7266 21.7969C47.4922 21.5625 46.8828 21.5156 45.6172 21.6445Z" fill="#C4944F"/>
        <path d="M45.2656 27.9727C41.9375 28.2891 38.3984 29.2148 35.4805 30.5156C35.1055 30.6914 34.6953 30.9141 34.5781 31.0195C34.3086 31.2656 34.3086 31.8984 34.5781 32.1445C34.8945 32.4258 35.293 32.3906 36.1719 32.0039C39.2656 30.6094 42.9336 29.707 46.0859 29.5664C47.6914 29.4961 48.1133 29.3906 48.2891 29.0039C48.4297 28.6875 48.3711 28.418 48.1016 28.0898C47.9492 27.9258 47.7383 27.8906 46.8008 27.9141C46.1797 27.9141 45.4883 27.9492 45.2656 27.9727Z" fill="#C4944F"/>
    </g>
    <defs>
        <clipPath id="clip0_18_131">
            <rect width="60" height="60" fill="white" transform="translate(0.5)"/>
        </clipPath>
    </defs>
</svg>