<svg width="50" height="50" viewBox="0 0 50 50" fill="none" xmlns="http://www.w3.org/2000/svg">
    <g clip-path="url(#clip0_18_156)">
        <path d="M10.5761 0.742203C10.3515 0.830093 9.94138 1.09377 9.66795 1.33791C9.01365 1.92384 8.67185 2.59767 8.61326 3.43752L8.56443 4.09181L6.21092 4.12111C4.02342 4.15041 3.81834 4.16994 3.29099 4.37502C2.22654 4.8047 1.30857 5.73244 0.859352 6.83595L0.634743 7.37306L0.605446 26.4649C0.595681 39.3555 0.615212 45.7129 0.683571 46.0449C0.986306 47.5195 2.07029 48.7305 3.49607 49.209C4.09177 49.4141 4.13084 49.4141 24.9804 49.4141C47.8418 49.4141 46.3183 49.4531 47.3242 48.8672C47.8418 48.5645 48.6523 47.7149 48.916 47.1875C49.4433 46.1621 49.414 47.1777 49.414 26.7578C49.414 9.99025 49.3945 7.78322 49.2578 7.27541C48.8769 5.8008 47.7148 4.62892 46.25 4.2383C45.8984 4.14064 45.1074 4.10158 43.5937 4.10158H41.4355L41.3867 3.43752C41.3281 2.59767 40.9863 1.93361 40.332 1.33791C39.6777 0.742203 39.0722 0.54689 38.0957 0.605484C37.5097 0.634781 37.2363 0.712906 36.8261 0.92775C35.8984 1.43556 35.3125 2.3633 35.1953 3.49611L35.1269 4.10158H31.6406H28.1543L28.1054 3.46681C28.0078 2.334 27.3926 1.41603 26.3476 0.85939C25.9961 0.673843 25.7812 0.634781 25 0.634781C24.2187 0.634781 24.0039 0.673843 23.6523 0.85939C22.6074 1.41603 21.9922 2.334 21.8945 3.46681L21.8457 4.10158H18.3594H14.873L14.8047 3.49611C14.6875 2.3633 14.1015 1.43556 13.164 0.92775C12.7246 0.683609 12.5195 0.644547 11.8164 0.61525C11.25 0.595718 10.8594 0.634781 10.5761 0.742203ZM12.5683 2.35353C12.7344 2.46095 12.9687 2.74416 13.0859 2.97853C13.2812 3.37892 13.291 3.53517 13.2617 5.00978C13.2324 6.60158 13.2324 6.61134 12.9492 6.97267C12.2461 7.90041 10.791 7.78322 10.2929 6.76759C10.039 6.25002 10.0195 3.43752 10.2734 2.97853C10.7324 2.11916 11.748 1.84572 12.5683 2.35353ZM25.791 2.3047C25.9375 2.37306 26.1621 2.57814 26.289 2.75392C26.5039 3.05666 26.5136 3.17384 26.5429 4.78517C26.5722 6.43556 26.5625 6.50392 26.3476 6.82619C25.9668 7.39259 25.6445 7.56837 25 7.56837C24.3554 7.56837 24.0332 7.39259 23.6621 6.83595C23.4472 6.53322 23.4375 6.41603 23.4375 4.91212C23.4375 3.22267 23.5058 2.87111 23.9258 2.49025C24.3945 2.07033 25.1855 1.9922 25.791 2.3047ZM39.1015 2.32423C39.7558 2.70509 39.9316 3.2422 39.9414 4.85353C39.9414 6.50392 39.7265 7.08009 38.9453 7.48048C38.5547 7.68556 37.7734 7.6172 37.4219 7.35353C36.8066 6.89455 36.7676 6.76759 36.7383 5.01955C36.709 3.54494 36.7187 3.36916 36.914 2.97853C37.3242 2.12892 38.2715 1.84572 39.1015 2.32423ZM8.59373 6.15236C8.59373 7.25587 9.26756 8.29103 10.332 8.80861C10.8984 9.09181 11.0742 9.13087 11.7187 9.12111C12.5976 9.12111 13.1543 8.8965 13.8086 8.3008C14.3652 7.78322 14.7265 7.06056 14.8047 6.26955L14.873 5.66408H18.3594H21.8457L21.9043 6.28908C22.0117 7.44142 22.6758 8.38869 23.7207 8.87697C24.4922 9.2383 25.5078 9.2383 26.2793 8.87697C27.3242 8.38869 27.9883 7.44142 28.0957 6.28908L28.1543 5.66408H31.6406H35.1269L35.1953 6.25978C35.2734 7.0215 35.5273 7.58791 36.0351 8.14455C37.6074 9.85353 40.4004 9.29689 41.2207 7.11916C41.3281 6.85548 41.4062 6.41603 41.4062 6.14259V5.65431L43.7304 5.68361L46.0449 5.71291L46.5039 5.97658C46.748 6.13283 47.0898 6.41603 47.2558 6.61134C47.832 7.3047 47.8515 7.49025 47.8515 11.3965V14.9414H25H2.14841V11.3867C2.14841 7.60743 2.16795 7.39259 2.6367 6.72853C2.91013 6.34767 3.42771 5.96681 3.87693 5.8008C4.1406 5.71291 4.86326 5.67384 6.42576 5.66408H8.59373V6.15236ZM47.8515 31.084C47.8515 47.3535 47.9004 46.1621 47.1679 47.002C46.9433 47.2461 46.5625 47.5293 46.2695 47.666L45.7519 47.9004H25H4.24802L3.75974 47.6758C3.16404 47.4024 2.80271 47.0703 2.46091 46.4844L2.19724 46.0449L2.16795 31.2695L2.14841 16.5039H25H47.8515V31.084Z" fill="#C3944F"/>
        <path d="M10.2051 22.1387C8.51563 22.7441 7.47071 24.082 7.35352 25.7715C7.20703 27.9199 8.65235 29.7266 10.8301 30.0977C12.5781 30.4004 14.2969 29.4922 15.1074 27.8516C15.4688 27.1289 15.4785 27.0801 15.4785 26.0352C15.4785 25.0098 15.459 24.9121 15.166 24.3066C14.7559 23.4766 14.0137 22.7344 13.1934 22.3438C12.6367 22.0703 12.4219 22.0313 11.6211 22.002C10.918 21.9727 10.5762 22.0117 10.2051 22.1387ZM12.4609 23.6816C13.3496 24.0527 14.0039 25.0391 14.0039 26.0352C14.0039 28.4277 11.0938 29.5117 9.50196 27.7051C9.03321 27.1582 8.84766 26.582 8.90625 25.791C9.02344 24.1211 10.8789 23.0176 12.4609 23.6816Z" fill="#C3944F"/>
        <path d="M23.7109 22.1582C22.8809 22.4316 22.1191 23.0078 21.582 23.7891C20.8008 24.9121 20.6836 26.5625 21.2988 27.8125C22.5586 30.3809 25.8984 30.9473 27.9102 28.9356C29.2773 27.5781 29.4922 25.3418 28.418 23.7793C27.9785 23.1445 27.1973 22.4902 26.582 22.2559C25.8105 21.9531 24.4824 21.9043 23.7109 22.1582ZM26.1719 23.7793C27.0703 24.2383 27.5391 25.0195 27.5391 26.0742C27.5391 27.4805 26.5723 28.4961 25.1269 28.5938C24.6387 28.6231 24.4336 28.5938 24.0039 28.3984C22.9785 27.9297 22.4707 27.1582 22.4609 26.0742C22.4609 24.1113 24.4238 22.9004 26.1719 23.7793Z" fill="#C3944F"/>
        <path d="M37.2266 22.168C36.9434 22.2656 36.5723 22.4414 36.3867 22.5488C35.8594 22.8809 35.0684 23.7891 34.7852 24.3848C34.5508 24.8926 34.5215 25.0684 34.5215 26.0352C34.5215 27.0801 34.5312 27.1289 34.8926 27.8516C36.582 31.2793 41.5918 30.752 42.5391 27.0508C43.0762 24.9512 41.8164 22.7344 39.7559 22.1289C39.0234 21.9141 37.8711 21.9336 37.2266 22.168ZM39.6777 23.75C40.8008 24.2285 41.377 25.6055 40.9961 26.875C40.8398 27.4121 40.1855 28.1055 39.5996 28.3789C37.9297 29.1602 35.9961 27.9004 36.0059 26.0352C36.0059 25.3223 36.1816 24.8633 36.6602 24.336C37.4414 23.4766 38.5254 23.2617 39.6777 23.75Z" fill="#C3944F"/>
        <path d="M10.2051 34.4434C9.02344 34.8633 8.20313 35.6055 7.69532 36.6797C6.52344 39.1895 8.28126 42.1875 11.0742 42.4512C12.7832 42.6074 14.4043 41.6602 15.166 40.0586C15.459 39.4434 15.4785 39.336 15.4785 38.3301C15.4785 37.3242 15.459 37.2168 15.166 36.6211C14.7656 35.8008 13.9941 35.0293 13.1836 34.6387C12.6367 34.375 12.4219 34.336 11.6211 34.3067C10.918 34.2774 10.5762 34.3164 10.2051 34.4434ZM12.5684 36.0547C13.0469 36.2793 13.6231 36.8848 13.8477 37.3926C14.0918 37.9688 14.043 38.8477 13.7305 39.4824C12.9199 41.1524 10.752 41.416 9.51172 40.0098C9.06251 39.502 8.88672 39.0137 8.88672 38.291C8.88672 36.4551 10.8496 35.2637 12.5684 36.0547Z" fill="#C3944F"/>
        <path d="M23.6816 34.4824C23.0566 34.6973 22.6953 34.9219 22.1875 35.3906C20.9082 36.5625 20.5371 38.5059 21.2695 40.0684C21.8457 41.3086 22.998 42.1777 24.3555 42.4121C26.123 42.7148 27.959 41.7383 28.7305 40.0781C29.3164 38.8281 29.1894 37.207 28.418 36.084C27.9785 35.4492 27.1973 34.7949 26.582 34.5606C25.7617 34.2481 24.4531 34.209 23.6816 34.4824ZM26.1719 36.084C27.0703 36.543 27.5391 37.3242 27.5391 38.3789C27.5391 39.7949 26.5723 40.8008 25.1172 40.8984C24.5801 40.9375 24.4238 40.8984 23.8867 40.6348C22.9101 40.1563 22.4609 39.4336 22.4609 38.3594C22.4609 36.416 24.4336 35.2148 26.1719 36.084Z" fill="#C3944F"/>
        <path d="M37.3047 34.4629C36.25 34.8047 35.2637 35.6738 34.7852 36.6992C34.5508 37.1973 34.5215 37.3731 34.5215 38.3398C34.5215 39.3848 34.5312 39.4336 34.8828 40.1563C36.543 43.5059 41.4062 43.1055 42.5 39.5215C43.1445 37.3926 41.8848 35.0586 39.7559 34.4336C39.0625 34.2285 37.9785 34.2383 37.3047 34.4629ZM39.7168 36.0938C40.6641 36.543 41.1621 37.4023 41.0938 38.4668C41.0254 39.5215 40.5469 40.2441 39.5996 40.6836C37.9297 41.4648 35.9961 40.2051 36.0059 38.3398C36.0059 37.6465 36.1719 37.1875 36.6211 36.6797C37.4219 35.7813 38.584 35.5566 39.7168 36.0938Z" fill="#C3944F"/>
    </g>
    <defs>
        <clipPath id="clip0_18_156">
            <rect width="50" height="50" fill="white"/>
        </clipPath>
    </defs>
</svg>