<svg width="61" height="60" viewBox="0 0 61 60" fill="none" xmlns="http://www.w3.org/2000/svg">
    <path d="M10.3564 2.8995C9.54258 3.24798 9.87495 5.02721 9.87495 5.7422V11.6016C9.87495 12.3339 10.0911 13.4772 9.80423 14.158C9.53537 14.7962 8.34009 15.189 7.76557 15.5046C6.39443 16.2576 5.03829 17.0381 3.66401 17.7854C3.01841 18.1365 2.05352 18.49 1.62534 19.1125C1.18833 19.748 1.43745 21.0545 1.43745 21.7969V28.7109C1.43745 29.4783 1.17447 30.8569 1.62534 31.5126C2.52376 32.8188 5.21984 33.703 6.5937 34.4695C7.80323 35.1443 9.95994 36.9602 11.3984 36.449C13.5826 35.6725 15.6935 34.0828 17.7265 32.9656C18.4464 32.5699 19.659 32.0446 20.0493 31.2873C20.3603 30.6838 20.1874 29.7236 20.1874 29.0625V24.1406V20.625C20.1874 20.1443 20.2871 19.5305 19.9996 19.1125C19.5714 18.49 18.6065 18.1365 17.9609 17.7854C16.5866 17.0381 15.2304 16.2576 13.8593 15.5046C13.2763 15.1844 12.3648 14.8732 11.9378 14.3521C11.4987 13.8161 11.7499 12.4949 11.7499 11.836V5.27345C11.7499 4.38277 11.9588 2.21338 10.3564 2.8995ZM37.0624 20.1563V6.32814C37.0624 5.46207 37.3207 4.09695 36.9755 3.29401C36.7349 2.73466 35.7794 2.64187 35.3916 3.09771C34.7359 3.86853 35.1874 6.39815 35.1874 7.38283V16.1719C35.1874 17.1995 35.5276 18.9525 35.1168 19.8969C34.8003 20.6244 33.0624 21.1395 32.3749 21.4649C30.4024 22.3984 28.4679 23.4278 26.5156 24.404C25.7992 24.7621 24.5996 25.1011 24.1416 25.7877C23.7723 26.3413 23.9374 27.2568 23.9374 27.8906V33.0469V40.1953C23.9374 41.1238 23.6865 42.4866 24.0244 43.3589C24.3872 44.2956 25.9199 44.7312 26.7499 45.1461L33.3124 48.4274C34.124 48.8331 35.3019 49.7257 36.2421 49.6381C37.2199 49.5468 38.3056 48.7433 39.1718 48.3102L45.4999 45.1461C46.33 44.7312 47.8627 44.2956 48.2255 43.3589C48.5633 42.4866 48.3124 41.1238 48.3124 40.1953V33.0469V27.8906C48.3124 27.2554 48.4992 26.2525 48.158 25.689C47.6986 24.9307 46.1526 24.4967 45.3828 24.1117L40.2265 21.5336C39.2281 21.0343 38.1713 20.3534 37.0624 20.1563ZM23.9374 8.43751C23.2635 8.43751 22.095 8.21387 21.5032 8.57568C20.9945 8.88674 20.9945 9.86329 21.5032 10.1744C22.095 10.5362 23.2635 10.3125 23.9374 10.3125C23.9374 10.9864 23.7139 12.1549 24.0756 12.7467C24.3866 13.2554 25.3633 13.2554 25.6743 12.7467C26.036 12.1549 25.8124 10.9864 25.8124 10.3125C26.4864 10.3125 27.6549 10.5362 28.2467 10.1744C28.7554 9.86329 28.7554 8.88674 28.2467 8.57568C27.6549 8.21387 26.4864 8.43751 25.8124 8.43751C25.8124 7.76359 26.036 6.59508 25.6743 6.00334C25.3633 5.49459 24.3866 5.49459 24.0756 6.00334C23.7139 6.59508 23.9374 7.76359 23.9374 8.43751Z" fill="#545454"/>
    <path d="M49.25 16.875C48.5761 16.875 47.4076 16.6514 46.8158 17.0132C46.3071 17.3242 46.3071 18.3008 46.8158 18.6118C47.4076 18.9736 48.5761 18.75 49.25 18.75C49.25 19.4239 49.0264 20.5924 49.3882 21.1842C49.6992 21.6929 50.6758 21.6929 50.9868 21.1842C51.3486 20.5924 51.125 19.4239 51.125 18.75C51.7989 18.75 52.9674 18.9736 53.5592 18.6118C54.0679 18.3008 54.0679 17.3242 53.5592 17.0132C52.9674 16.6514 51.7989 16.875 51.125 16.875C51.125 16.201 51.3486 15.0326 50.9868 14.4408C50.6758 13.9321 49.6992 13.9321 49.3882 14.4408C49.0264 15.0326 49.25 16.201 49.25 16.875ZM37.0625 15.9375V18.9844C37.0626 19.3749 36.9873 19.8827 37.3341 20.1551C37.9437 20.6338 38.4629 20.0136 38.87 19.6037C39.6563 18.8119 41.7305 16.5728 39.4058 15.9866C38.6861 15.8051 37.8021 15.9375 37.0625 15.9375Z" fill="#ECCA98"/>
    <path d="M6.24219 18.6328V18.75H15.3828L12.1016 16.8391L10.6953 16.2716L6.24219 18.6328Z" fill="white"/>
    <path d="M35.0703 16.1719C33.3759 16.7466 31.6751 17.0939 30.0312 17.8487C26.072 19.6664 22.7593 22.9032 20.6924 26.7187C19.9028 28.1763 20.5504 29.5603 20.1366 31.0542C19.8879 31.9521 18.7558 31.9895 18.5586 32.9302C18.0293 35.4527 17.8691 39.407 18.9292 41.8187C19.161 42.3461 19.895 42.2858 20.0954 42.8924C20.3016 43.5169 19.6347 43.9745 19.8745 44.6484C22.3924 51.7256 29.8104 56.477 37.0625 57.1676C45.4087 57.9625 53.3443 53.4891 57.2997 46.1719C58.6028 43.7612 59.5491 40.7259 59.5624 37.9687C59.567 37.0144 59.8121 35.6556 58.7375 35.183C57.209 34.5109 56.0772 36.5089 55.1093 37.3629C53.3172 38.9443 50.7326 40.1454 48.3125 40.1953C48.3125 41.1045 48.6386 42.8077 48.1083 43.5814C47.5688 44.3687 46.0976 44.7894 45.2656 45.2054L38.8203 48.4274C38.0729 48.8011 36.976 49.6376 36.125 49.6376C35.4685 49.6376 34.7048 49.0649 34.1328 48.7789L29.4453 46.4352L25.5781 44.5023C25.028 44.2273 24.2689 43.9782 24.0244 43.3576C23.5919 42.2589 23.9375 40.4341 23.9375 39.2578V30C23.9375 28.9268 23.4946 26.5384 24.2227 25.689C24.7702 25.0502 25.8923 24.7164 26.6328 24.3461L32.7265 21.2992C33.3671 20.9789 34.6728 20.6114 35.067 19.9934C35.4766 19.3512 35.3577 16.8568 35.0703 16.1719Z" fill="#ECCA98"/>
    <path d="M3.3125 20.625V30H7.0625V20.625H3.3125ZM8.9375 20.625V30H12.6875V20.625H8.9375ZM14.5625 20.625V30H18.3125V20.625H14.5625Z" fill="white"/>
    <path d="M28.9766 25.1953V25.3125H33.6641L35.4789 25.192L36.8281 22.0312C35.9205 21.531 35.2066 22.1092 34.3672 22.5289C32.5839 23.4205 30.8169 24.4291 28.9766 25.1953Z" fill="#ECCA98"/>
    <path d="M36.8281 22.1484L35.5391 25.3125H43.1562C41.6287 24.0469 38.7354 22.6978 36.8281 22.1484Z" fill="white"/>
    <path d="M50.1875 30.9375C50.8614 30.9375 52.0299 31.1611 52.6217 30.7993C53.1304 30.4883 53.1304 29.5117 52.6217 29.2007C52.0299 28.8389 50.8614 29.0625 50.1875 29.0625C50.1875 28.3886 50.4111 27.2201 50.0493 26.6283C49.711 26.075 48.6564 26.134 48.3995 26.7315C47.8877 27.9214 48.3125 30.1132 48.3125 31.4062C48.3125 31.9693 48.1453 32.8723 48.4507 33.3717C48.7617 33.8804 49.7383 33.8804 50.0493 33.3717C50.4111 32.7799 50.1875 31.6114 50.1875 30.9375ZM25.8125 27.1875V42.1875H30.5V27.1875H25.8125ZM32.375 27.1875V42.1875H39.875C39.875 40.9334 40.2658 38.9108 39.8043 37.7449C39.437 36.8168 38.1317 36.0042 37.5355 35.1562C35.879 32.8003 35.0787 30.0502 35.3047 27.1875H32.375Z" fill="#ECCA98"/>
    <path d="M35.3047 27.1875C34.8382 30.879 36.6409 35.5942 39.875 37.6172V27.1875H35.3047ZM41.75 27.1875V35.625C41.75 36.4127 41.4178 38.1873 41.8705 38.8479C42.578 39.8802 45.2997 40.1859 46.4375 40.1953V30.9375C45.2639 30.6986 45.2639 29.3014 46.4375 29.0625V27.1875H41.75Z" fill="white"/>
    <path d="M46.4375 30.9375V29.0625C45.2113 29.2003 45.2113 30.7997 46.4375 30.9375Z" fill="#ECCA98"/>
    <path d="M6.24219 31.875V31.9922L9.40625 33.7229L10.8125 34.3616L12.2188 33.7229L15.3828 31.9922L12.5703 31.875H6.24219Z" fill="white"/>
    <path d="M41.75 38.9062V42.1875H46.4375V40.1953C44.7705 40.1609 43.2752 39.4979 41.75 38.9062Z" fill="#ECCA98"/>
    <path d="M15.5 42.1875C14.826 42.1875 13.6575 41.9639 13.0657 42.3257C12.557 42.6367 12.557 43.6133 13.0657 43.9243C13.6575 44.2861 14.826 44.0625 15.5 44.0625C15.5 44.7364 15.2764 45.9049 15.6381 46.4967C15.9491 47.0054 16.9258 47.0054 17.2368 46.4967C17.5986 45.9049 17.375 44.7364 17.375 44.0625C18.0317 44.0625 18.9807 44.2357 19.5892 43.962C20.2471 43.6661 20.3208 42.7305 19.6936 42.3582C19.0862 41.9977 18.0566 42.1875 17.375 42.1875C17.375 41.5136 17.5986 40.3451 17.2368 39.7533C16.9258 39.2446 15.9491 39.2446 15.6381 39.7533C15.2764 40.3451 15.5 41.5136 15.5 42.1875Z" fill="#545454"/>
    <path d="M28.9766 44.0625V44.1797L34.0156 46.6696L36.125 47.6038L38.2344 46.6696L43.2734 44.1797C42.1263 43.6983 40.1837 44.0625 38.9375 44.0625H28.9766Z" fill="#ECCA98"/>
</svg>