<svg width="60" height="60" viewBox="0 0 60 60" fill="none" xmlns="http://www.w3.org/2000/svg">
    <path d="M34.3264 9.61388C34.7081 9.26602 35.2919 9.26602 35.6736 9.61388L42.2958 15.6491C42.4654 15.8037 42.683 15.8952 42.9122 15.9084L51.7856 16.4172C52.2937 16.4463 52.6988 16.8524 52.7268 17.3605L53.2276 26.4454C53.2399 26.6685 53.3267 26.8812 53.4739 27.0493L59.4227 33.8396C59.7531 34.2167 59.7531 34.7803 59.4227 35.1575L53.4739 41.9478C53.3267 42.1159 53.2399 42.3285 53.2276 42.5517L52.7268 51.6365C52.6988 52.1447 52.2937 52.5507 51.7856 52.5799L42.9122 53.0887C42.683 53.1018 42.4654 53.1934 42.2958 53.3479L35.6736 59.3832C35.2919 59.731 34.7081 59.731 34.3264 59.3832L27.7042 53.3479C27.5346 53.1934 27.317 53.1018 27.0878 53.0887L18.2144 52.5799C17.7063 52.5507 17.3012 52.1447 17.2732 51.6365L16.7724 42.5517C16.7601 42.3285 16.6733 42.1159 16.5261 41.9478L10.5773 35.1575C10.2469 34.7803 10.2469 34.2167 10.5773 33.8396L16.5261 27.0493C16.6733 26.8812 16.7601 26.6685 16.7724 26.4454L17.2732 17.3605C17.3012 16.8524 17.7063 16.4463 18.2144 16.4172L27.0878 15.9084C27.317 15.8952 27.5346 15.8037 27.7042 15.6491L34.3264 9.61388Z" fill="#ECCA98"/>
    <path d="M35.2796 18.5623L39.5504 22.4545C39.8897 22.7637 40.3249 22.9468 40.7831 22.9731L46.5082 23.3014L46.832 29.1751C46.8566 29.6214 47.0301 30.0467 47.3246 30.3829L51.1723 34.7749L47.3246 39.167C47.0301 39.5032 46.8566 39.9284 46.832 40.3748L46.5082 46.2485L40.7831 46.5768C40.3249 46.6031 39.8897 46.7862 39.5504 47.0953L35.2796 50.9876L31.0088 47.0953C30.6695 46.7862 30.2343 46.6031 29.7761 46.5768L24.051 46.2485L23.7272 40.3748C23.7026 39.9284 23.5291 39.5032 23.2346 39.167L19.3868 34.7749L23.2346 30.3829C23.5291 30.0467 23.7026 29.6214 23.7272 29.1751L24.051 23.3014L29.7761 22.9731C30.2343 22.9468 30.6695 22.7637 31.0088 22.4546L35.2796 18.5623Z" fill="#ECCA98" stroke="white" stroke-width="2"/>
    <path d="M10.984 0.210464C10.0549 0.531696 9.67879 0.886166 9.01511 2.07141C9.01511 2.08249 8.76069 2.0271 8.46204 1.93848C7.27846 1.57294 6.22763 1.83879 5.35378 2.7028C4.50205 3.56681 4.42462 3.9102 4.42462 6.87886V9.28258L3.87155 9.07212C2.77646 8.66227 1.72563 8.85058 0.884962 9.60382C-0.022075 10.4235 4.7859e-05 10.2241 4.7859e-05 17.2359C4.7859e-05 20.991 0.0442935 23.6828 0.121723 24.2145C0.553119 27.3271 2.25658 30.2293 4.7454 32.1346C5.79623 32.9321 7.6988 33.8404 9.01511 34.1728C13.6388 35.3469 18.5832 33.6189 21.4703 29.8084C22.2446 28.7782 23.1737 26.8508 23.5277 25.5326L23.8264 24.4249L23.8706 16.6931C23.9148 7.73179 23.948 8.13057 22.9636 7.14471C22.1118 6.29177 20.9283 5.98162 19.8995 6.35824L19.4903 6.50224L19.446 5.71577C19.3907 4.8296 19.0368 4.02098 18.5058 3.53358C17.7315 2.8025 16.4263 2.48126 15.5192 2.8025L15.0546 2.95758L14.9883 2.5588C14.8887 1.93848 14.3246 1.03017 13.8047 0.664623C13.3069 0.29908 12.4331 0 11.9021 0C11.7141 0.0110741 11.3048 0.0996933 10.984 0.210464ZM12.8755 2.20433L13.2184 2.54772L13.2516 8.80627L13.2738 15.0648H11.9464H10.619L10.6411 8.81734L10.6743 2.56988L10.9509 2.2708C11.3159 1.87202 11.5814 1.76125 12.1012 1.81664C12.3999 1.84987 12.6433 1.97172 12.8755 2.20433ZM8.45097 3.97667L8.79388 4.32006L8.82706 9.69243C8.84918 14.522 8.83812 15.0648 8.68326 15.0648C8.58371 15.0648 8.38461 15.1867 8.24081 15.3417C7.87578 15.6962 7.87578 16.2057 8.24081 16.5602L8.50628 16.8371H11.0393C15.2095 16.8371 16.6032 17.2359 18.5722 18.9972C19.2469 19.5843 19.6562 19.6507 20.0765 19.2187C20.5079 18.7978 20.4526 18.3325 19.9106 17.823L19.4571 17.391L19.4903 13.0709L19.5235 8.75088L19.8885 8.39642C20.1982 8.08626 20.3199 8.03087 20.7955 8.03087C21.2712 8.03087 21.3928 8.08626 21.7026 8.39642L22.0676 8.75088L22.1008 16.1171C22.1229 22.9849 22.1118 23.5498 21.9127 24.5025C21.061 28.7007 18.0633 31.7136 13.8821 32.5777C10.6411 33.2534 7.11254 32.1567 4.72328 29.7419C3.46227 28.4681 2.73222 27.2164 2.12384 25.2668L1.82518 24.3142V17.6901V11.0549L2.10172 10.8334C2.67691 10.3681 3.92685 10.8666 4.26976 11.6974C4.39143 11.9965 4.42462 12.9491 4.42462 16.3941V20.7252L4.67903 20.98C4.90026 21.1904 5.0883 21.2458 6.03958 21.3012C8.40673 21.4563 10.5416 22.2981 11.8358 23.5831C12.7207 24.4582 13.13 25.2446 13.2627 26.297C13.3622 27.161 13.6056 27.4711 14.1697 27.4711C15.1763 27.4711 15.3312 25.9868 14.5016 24.3031C13.2627 21.8107 10.5526 20.0938 7.10148 19.5953L6.19444 19.4735L6.21657 11.9078L6.24975 4.34221L6.52629 4.04313C6.89131 3.64435 7.15679 3.53358 7.67667 3.58897C7.97533 3.6222 8.21868 3.74405 8.45097 3.97667ZM17.3001 4.86283L17.643 5.20622L17.6762 10.6894C17.6873 13.7023 17.6873 16.1725 17.6541 16.1725C17.632 16.1725 17.3444 16.0507 17.0346 15.9067C16.7139 15.7516 16.1276 15.5522 15.7404 15.4414L15.0325 15.2531L15.0657 10.2352L15.0989 5.22837L15.3754 4.92929C15.7404 4.53052 16.0059 4.41975 16.5258 4.47513C16.8245 4.50837 17.0678 4.63021 17.3001 4.86283Z" fill="#545454"/>
    <path d="M36.8126 0.144001C35.7507 0.443081 34.899 1.31817 34.6335 2.39265C34.5008 2.89111 34.5008 2.89111 34.1468 2.8025C33.9477 2.75819 33.4721 2.71388 33.0739 2.71388C32.4766 2.71388 32.2443 2.78034 31.7465 3.05727C30.7178 3.63328 30.0873 4.74098 30.0873 5.95946C30.0873 6.41362 30.0762 6.44685 29.844 6.36931C29.2466 6.19208 28.4391 6.181 27.8197 6.36931C27.3219 6.51332 27.0565 6.67947 26.603 7.13363C25.6295 8.10841 25.6627 7.7761 25.6627 16.1282C25.6627 20.6698 25.707 23.6717 25.7844 24.2145C26.2158 27.3271 27.9193 30.2293 30.4081 32.1346C31.4589 32.9321 33.3615 33.8404 34.6778 34.1728C39.3015 35.3469 44.2459 33.6189 47.133 29.8084C47.9073 28.7893 48.8364 26.8508 49.2014 25.5326L49.5001 24.4249V17.6679C49.5001 13.946 49.4669 10.778 49.4116 10.6008C49.301 10.1798 48.6041 9.44874 48.0732 9.17181C47.4095 8.8395 46.425 8.78411 45.7171 9.06104L45.153 9.27151L45.1087 6.65732C45.0755 4.4419 45.0423 3.97667 44.8764 3.60005C44.4672 2.68065 43.4495 1.96064 42.3434 1.81664C41.923 1.76125 41.4806 1.82772 40.7505 2.04926C40.5625 2.10464 40.4961 2.07141 40.4519 1.86095C40.3412 1.41786 39.6222 0.697853 39.0139 0.387695C38.2949 0.0443077 37.5095 -0.0443115 36.8126 0.144001ZM38.5382 2.20433L38.8811 2.54772L38.9143 8.80627L38.9475 15.0648H37.6091H36.2817L36.3038 8.81734L36.337 2.56988L36.6135 2.2708C36.9786 1.87202 37.244 1.76125 37.7639 1.81664C38.0626 1.84987 38.3059 1.97172 38.5382 2.20433ZM42.9628 3.97667L43.3057 4.32006L43.3389 11.9078L43.361 19.4956L43.1177 19.5399C42.9739 19.5732 42.5093 19.6396 42.0668 19.7061C38.4276 20.2489 35.3968 22.5529 34.6778 25.3111C34.4234 26.297 34.4566 26.873 34.7884 27.1942C35.3415 27.7591 36.2817 27.3604 36.2817 26.5517C36.2817 25.9646 36.6025 25.0342 37.0339 24.3806C38.0405 22.8631 40.4629 21.6446 43.0292 21.3787C43.6486 21.3234 44.2459 21.268 44.3565 21.268C44.4672 21.268 44.6663 21.1683 44.8101 21.0575L45.0755 20.847L45.1308 16.3054C45.1861 11.93 45.1972 11.7417 45.4184 11.4537C45.7724 10.9663 46.1706 10.7226 46.7126 10.6672C47.144 10.6118 47.2546 10.6451 47.498 10.8888L47.7856 11.1768V17.3578C47.7856 22.9628 47.7635 23.6274 47.5754 24.5357C46.7126 28.7118 43.715 31.7136 39.5448 32.5777C36.3038 33.2534 32.7752 32.1567 30.386 29.7419C29.125 28.4681 28.3949 27.2164 27.7865 25.2668L27.4879 24.3142V16.5381V8.75088L27.8529 8.39642C28.1626 8.08626 28.2843 8.03087 28.7599 8.03087C29.2356 8.03087 29.3572 8.08626 29.667 8.39642L30.032 8.75088L30.0652 13.0709L30.0984 17.391L29.6448 17.823C29.1028 18.3325 29.0475 18.7978 29.4789 19.2187C29.9103 19.6618 30.2975 19.5843 31.105 18.8975C32.012 18.1332 32.5982 17.7676 33.5053 17.4242C34.7331 16.959 35.6733 16.8482 38.4719 16.8371H41.0492L41.3146 16.5602C41.6797 16.2057 41.6797 15.6962 41.3146 15.3417C41.1708 15.1867 40.9717 15.0648 40.8722 15.0648C40.7173 15.0648 40.7063 14.522 40.7284 9.70351L40.7616 4.34221L41.0381 4.04313C41.4031 3.64435 41.6686 3.53358 42.1885 3.58897C42.4872 3.6222 42.7305 3.74405 42.9628 3.97667ZM34.1137 4.86283L34.4566 5.20622L34.4897 10.2352L34.5229 15.2531L33.815 15.4414C33.4279 15.5522 32.8416 15.7516 32.5208 15.9067C32.2111 16.0507 31.9235 16.1725 31.9014 16.1725C31.8682 16.1725 31.8682 13.7134 31.8793 10.7004L31.9124 5.22837L32.189 4.92929C32.554 4.53052 32.8195 4.41975 33.3394 4.47513C33.638 4.50837 33.8814 4.63021 34.1137 4.86283Z" fill="#545454"/>
</svg>