<svg width="64" height="62" viewBox="0 0 64 62" fill="none" xmlns="http://www.w3.org/2000/svg">
    <path d="M45.4672 60.4008V25.7608C45.4672 25.4298 45.1989 25.1615 44.8679 25.1615C44.537 25.1615 44.2687 25.4298 44.2687 25.7608V60.4008C44.2687 60.7317 44.537 61 44.8679 61C45.1989 61 45.4672 60.7317 45.4672 60.4008Z" fill="#545454" stroke="#ECCA98" stroke-width="1.36364" stroke-linecap="round"/>
    <path d="M27.7326 28.4196L22.2594 30.3744L25.6801 33.7954L50.3095 38.1937L51.6778 33.3067L27.7326 28.4196Z" fill="#ECCA98" stroke="#ECCA98" stroke-width="2.72727" stroke-linecap="round"/>
    <path d="M35.3344 51.226V45.4765L58.2951 41.4519L61.484 43.7517L57.6573 47.7763L35.3344 51.226Z" fill="#ECCA98" stroke="#ECCA98" stroke-width="2.72727" stroke-linecap="round"/>
    <path d="M13.1318 17.5456C13.8092 13.8307 16.5647 12.7682 18.5684 12.5299C19.0401 12.4737 19.2288 13.0614 18.8773 13.3809C15.5556 16.4011 16.9163 19.5119 18.1411 20.7859C20.726 23.017 23.0776 22.1517 24.6536 20.7517C25.0617 20.3892 25.8459 20.7428 25.6628 21.2571C24.0787 25.7059 20.2749 25.7059 19.4222 25.7059C17.3124 25.7059 12.0478 23.4905 13.1318 17.5456Z" stroke="#545454" stroke-width="2" stroke-linecap="round"/>
    <path d="M34.9495 8.61439L19.1083 1.18406C18.858 1.06663 18.5783 1.05738 18.3257 1.16994C15.9957 2.20839 4.7199 7.40634 2.12973 8.60084C1.79666 8.75444 1.58306 9.06852 1.56512 9.43486C1.16968 17.5102 2.84186 35.1623 18.2657 42.4723C18.5455 42.6049 18.8807 42.5946 19.1522 42.4456C34.1632 34.2035 36.4872 17.9595 35.5096 9.3816C35.4711 9.04405 35.2571 8.75867 34.9495 8.61439Z" stroke="#545454" stroke-width="2" stroke-linecap="round"/>
    <path d="M31.2718 11.0292L18.8848 5.04925C18.7795 4.9984 18.6613 4.9851 18.5515 5.02537C17.6794 5.34513 14.59 6.86534 5.35316 11.009C5.16946 11.0914 5.04841 11.2845 5.05413 11.4858C5.5647 29.4375 12.3637 33.5486 18.4308 38.2724C18.6041 38.4074 18.8485 38.4124 19.0276 38.2852C31.2521 29.6041 32.2181 17.2192 31.5481 11.4113C31.5287 11.2433 31.4241 11.1027 31.2718 11.0292Z" stroke="#545454" stroke-width="2" stroke-linecap="round"/>
</svg>