<svg width="60" height="60" viewBox="0 0 60 60" fill="none" xmlns="http://www.w3.org/2000/svg">
    <path d="M17.6016 4.14843C16.3008 4.57031 15.6094 5.4375 15.2344 7.08984L14.9766 8.16797L14.3906 7.78125C13.2773 7.03125 12.0586 6.94921 11.0508 7.57031C10.0664 8.17969 9.91406 8.57812 8.74219 13.3125C8.17969 15.6211 7.48828 18.4102 7.21875 19.5117L6.71484 21.5039L6.41016 20.9062C5.95312 20.0156 5.22656 19.1484 4.62891 18.7969C3.5625 18.1758 2.57812 18.6211 1.94531 20.0273C1.61719 20.7656 0.714844 24.2695 0.328125 26.3672C0.128906 27.3984 0.0703125 28.1602 0.0703125 29.6484C0.0703125 33 0.421875 33.9961 3.01172 37.793C4.6875 40.2539 5.12109 41.6484 5.23828 44.8594L5.30859 46.7813L4.52344 46.6992C3.5625 46.5938 2.87109 46.8164 2.35547 47.4023C1.94531 47.8828 1.82812 48.4219 1.62891 50.707C1.51172 52.207 1.51172 52.4414 1.6875 52.8867C1.91016 53.4844 2.23828 53.8242 2.82422 54.0703C3.10547 54.1875 6.42187 54.5391 12.9375 55.1367C23.4258 56.0977 23.0508 56.0859 23.8008 55.4648C24.3984 54.9609 24.5039 54.6094 24.7031 52.3008L24.8906 50.1328L24.6094 49.5938C24.3047 49.0195 23.707 48.5391 23.168 48.4336C22.793 48.3633 22.8047 48.3047 23.2852 47.2031C23.5078 46.7109 23.7891 46.3477 24.3867 45.8203C25.3359 44.9766 26.0859 43.9688 26.6602 42.7617C27.375 41.2617 27.5625 40.4414 27.6211 38.543C27.6914 36.4922 27.5742 35.7891 26.7187 33.2109C26.332 32.0391 26.1328 31.2305 26.1328 30.8555C26.1328 30.4922 26.7422 27.8555 27.7148 24C28.7812 19.7695 29.2969 17.5195 29.2969 17.0977C29.2969 15.9609 28.5703 14.8359 27.4922 14.2734C27.1289 14.0742 26.8008 14.0156 26.1094 14.0156C25.0781 14.0039 25.1484 14.1914 25.5586 12.5156C25.9805 10.8164 25.8047 9.79688 24.9141 8.8125C24.3281 8.16797 23.5078 7.83984 22.5117 7.83984H21.7148V7.16015C21.7031 5.9414 21.0703 4.92187 19.9922 4.39453C19.2305 4.01953 18.293 3.92578 17.6016 4.14843ZM19.2187 5.80078C19.6406 6.01171 20.0039 6.48046 20.0977 6.91406C20.1445 7.13671 19.5352 9.90234 18.1172 15.832C16.9805 20.5547 16.0547 24.5625 16.0547 24.75C16.0547 25.3594 16.6758 25.7227 17.2266 25.4297C17.5195 25.2773 17.5312 25.2305 19.3359 17.6953C20.1797 14.1797 20.9414 11.0391 21.0352 10.6992C21.3516 9.60938 22.2891 9.14062 23.2383 9.59766C23.8359 9.89062 24.1406 10.3594 24.1406 10.9922C24.1406 11.2617 23.2383 15.1992 22.1484 19.7578C21.0469 24.3281 20.1562 28.1953 20.1562 28.3594C20.1562 28.7227 20.25 28.875 20.6016 29.0508C20.9531 29.2383 21.3984 29.1328 21.5742 28.8164C21.6445 28.6758 22.3594 25.8633 23.1445 22.5469C23.9414 19.2422 24.6797 16.4062 24.7852 16.2422C25.0195 15.8906 25.6406 15.5859 26.1328 15.5859C26.9648 15.5859 27.6562 16.3008 27.6562 17.1562C27.6562 17.4023 26.9414 20.4609 26.0625 23.9414C24.1758 31.4062 24.2227 30.9023 25.1719 33.6914C25.8984 35.8477 26.0508 36.6211 26.0391 38.2031C26.0273 39.7148 25.7461 40.9102 25.0547 42.3047C24.6562 43.125 24.375 43.5 23.4375 44.4375C22.2305 45.6563 21.6797 46.5 21.3984 47.5898C21.2578 48.1523 21.2109 48.2227 20.9648 48.1992C20.8125 48.1758 17.707 47.9063 14.0625 47.5781C10.418 47.25 7.33594 46.957 7.19531 46.9336C6.96094 46.8867 6.94922 46.793 6.87891 44.918C6.79687 42.7031 6.52734 41.1797 5.96484 39.75C5.50781 38.5898 5.23828 38.1211 3.94922 36.2812C2.02734 33.5156 1.69922 32.5195 1.71094 29.5898C1.71094 27.8906 1.76953 27.375 2.03906 26.0742C2.73047 22.7695 3.48047 20.1562 3.75 20.1562C3.90234 20.1562 4.66406 21.0586 4.89844 21.5273C5.51953 22.7344 5.625 23.7188 5.33203 25.4883C4.89844 28.1133 5.12109 28.6992 7.47656 31.2188C10.0898 34.0195 10.8984 35.8008 10.4297 37.7344C10.3008 38.2852 10.3008 38.3672 10.5117 38.6484C10.8164 39.0586 11.3086 39.1172 11.6602 38.7891C12.1641 38.3086 12.3516 36.5273 12.0234 35.2969C11.6133 33.7617 10.7109 32.3789 8.64844 30.1055C7.08984 28.3945 6.91406 28.1602 6.91406 27.8086C6.91406 27.4102 11.25 9.83203 11.4375 9.46875C11.5312 9.29297 11.7187 9.07031 11.8594 8.97656C12.7148 8.37891 14.3086 9.33984 14.332 10.4648C14.332 10.6758 13.582 13.9688 12.6562 17.8008C10.8867 25.1953 10.8867 25.207 11.4727 25.5C11.7539 25.6406 12.3516 25.5234 12.4922 25.3008C12.5273 25.2422 13.5469 21.0234 14.7773 15.9141C16.1133 10.3359 17.0859 6.5039 17.2148 6.32812C17.6484 5.70703 18.5625 5.46093 19.2187 5.80078ZM13.5234 49.1484C20.9531 49.8398 22.9102 50.0508 23.0625 50.1914C23.2148 50.3555 23.2266 50.5781 23.0859 52.207C22.8984 54.4102 22.8867 54.4336 21.8672 54.3281C21.1172 54.2578 9.94922 53.2266 5.87109 52.8516C4.125 52.6992 3.44531 52.5938 3.30469 52.4648C3.15234 52.3008 3.15234 52.0781 3.28125 50.543C3.42187 48.7734 3.57422 48.2813 3.96094 48.2813C4.06641 48.2813 8.36719 48.668 13.5234 49.1484Z" fill="#C3944F"/>
    <path d="M40.4531 4.20704C39.1523 4.65235 38.2969 5.8125 38.2734 7.14844L38.2617 7.83985H37.4766C36.1289 7.82813 35.0625 8.48438 34.5 9.66797C34.1484 10.3945 34.1367 11.2852 34.4414 12.5156C34.8516 14.1914 34.9219 14.0039 33.9492 14.0039C33.3516 14.0039 32.9531 14.0859 32.5781 14.25C31.4766 14.7539 30.7031 15.9258 30.7031 17.0977C30.7031 17.5195 31.2188 19.7695 32.2852 24C33.2578 27.8555 33.8672 30.4922 33.8672 30.8555C33.8672 31.2305 33.668 32.0391 33.2812 33.1992C32.5078 35.5195 32.332 36.457 32.332 38.0859C32.3203 41.1328 33.293 43.5 35.3555 45.5391C36.1289 46.2891 36.5273 46.7813 36.7266 47.2383C37.1953 48.2813 37.1953 48.3633 36.832 48.4336C36.293 48.5391 35.6953 49.0195 35.3906 49.5938L35.1094 50.1328L35.2969 52.3008C35.4961 54.6094 35.6016 54.9609 36.1992 55.4648C36.8672 56.0273 37.1133 56.0508 40.0312 55.7813C54.0234 54.5156 56.6953 54.2461 57.1523 54.0703C57.4219 53.9766 57.7734 53.7422 57.9375 53.5547C58.4531 52.9336 58.5234 52.5234 58.3711 50.6953C58.1719 48.4219 58.0547 47.8828 57.6445 47.4023C57.1289 46.8164 56.4375 46.5938 55.4766 46.6992L54.6914 46.7813L54.7617 44.8594C54.8789 41.6484 55.3125 40.2539 56.9883 37.793C58.4766 35.6016 58.8984 34.8867 59.2969 33.832C60.0469 31.9102 60.1758 29.1328 59.6602 26.3086C59.2969 24.3164 58.3828 20.7656 58.0547 20.0273C57.4219 18.6211 56.4375 18.1758 55.3711 18.7969C54.7734 19.1484 54.0469 20.0156 53.5898 20.9062L53.2852 21.5039L52.7812 19.5117C52.5117 18.4102 51.8203 15.6211 51.2578 13.3125C50.0859 8.57812 49.9336 8.17969 48.9492 7.57032C47.9414 6.94922 46.7227 7.03125 45.6094 7.78125L45.0234 8.16797L44.7656 7.08985C44.3789 5.37891 43.6992 4.5586 42.3516 4.14844C41.625 3.9375 41.2148 3.94922 40.4531 4.20704ZM42.1758 5.83594C42.3984 5.94141 42.6797 6.16407 42.7852 6.32813C42.9141 6.50391 43.8867 10.3359 45.2227 15.9141C46.4531 21.0234 47.4727 25.2422 47.5078 25.3008C47.6484 25.5234 48.2461 25.6406 48.5273 25.5C49.1133 25.207 49.1133 25.1953 47.332 17.8125C46.418 13.9805 45.668 10.6758 45.668 10.4648C45.6914 9.33984 47.2852 8.37891 48.1406 8.97656C48.2812 9.07031 48.4688 9.29297 48.5625 9.46875C48.75 9.83203 53.0859 27.4219 53.0859 27.8086C53.0859 28.1602 52.9102 28.3945 51.3516 30.1055C49.2891 32.3789 48.3867 33.7617 47.9766 35.2969C47.6484 36.5273 47.8359 38.3086 48.3398 38.7891C48.6914 39.1172 49.1836 39.0586 49.4883 38.6484C49.6992 38.3672 49.6992 38.2852 49.5703 37.7344C49.1016 35.8008 49.9102 34.0195 52.5234 31.2188C54.8789 28.6992 55.1016 28.1133 54.668 25.4883C54.375 23.7188 54.4805 22.7344 55.1016 21.5273C55.3359 21.0586 56.0977 20.1562 56.25 20.1562C56.5195 20.1562 57.2344 22.5938 57.9023 25.8398C58.3125 27.7969 58.4531 30.0938 58.2539 31.4062C57.9844 33.1992 57.5508 34.0898 55.6172 36.9141C53.8359 39.5273 53.25 41.4023 53.1211 44.918C53.0508 46.793 53.0391 46.8867 52.8047 46.9336C52.6641 46.957 49.582 47.25 45.9375 47.5781C42.293 47.9063 39.1875 48.1758 39.0352 48.1992C38.7891 48.2227 38.7422 48.1523 38.6016 47.5898C38.3203 46.5 37.7695 45.6563 36.5625 44.4375C35.625 43.5 35.3438 43.125 34.9453 42.3047C34.2539 40.9102 33.9727 39.7031 33.9609 38.2031C33.9492 36.6445 34.0898 35.8711 34.8281 33.7031C35.7773 30.8789 35.8242 31.4062 33.9375 23.9414C33.0586 20.4609 32.3438 17.4023 32.3438 17.1562C32.3438 16.3008 33.0352 15.5859 33.8672 15.5859C34.3594 15.5859 34.9805 15.8906 35.2148 16.2422C35.3203 16.4062 36.0586 19.2422 36.8555 22.5469C37.6406 25.8633 38.3555 28.6758 38.4258 28.8164C38.6016 29.1328 39.0469 29.2383 39.3984 29.0508C39.75 28.875 39.8438 28.7227 39.8438 28.3594C39.8438 28.1953 38.9531 24.3281 37.8516 19.7578C36.7617 15.1992 35.8594 11.25 35.8594 10.9922C35.8594 9.65625 37.418 8.94141 38.4492 9.80859C38.8711 10.1719 38.8008 9.91406 40.6641 17.6953C42.4688 25.2305 42.4805 25.2773 42.7734 25.4297C43.3242 25.7227 43.9453 25.3594 43.9453 24.75C43.9453 24.5625 43.0195 20.5664 41.8945 15.8672C40.5352 10.2305 39.8555 7.20704 39.9023 6.98438C39.9844 6.50391 40.2539 6.12891 40.6992 5.85938C41.168 5.56641 41.6602 5.56641 42.1758 5.83594ZM56.4141 48.5391C56.5078 48.7031 56.6367 49.4883 56.7188 50.543C56.8477 52.0664 56.8477 52.3008 56.6953 52.4648C56.5547 52.5938 54.4805 52.8281 47.0977 53.5078C41.918 53.9766 37.6172 54.375 37.5352 54.375C37.1719 54.375 37.0664 54.0117 36.9141 52.207C36.7852 50.5898 36.7852 50.3555 36.9375 50.1914C37.0781 50.0625 38.5078 49.8867 43.3711 49.4414C46.8164 49.125 50.918 48.7383 52.5 48.5859C56.2734 48.2227 56.2031 48.2227 56.4141 48.5391Z" fill="#C3944F"/>
</svg>