<svg width="61" height="60" viewBox="0 0 61 60" fill="none" xmlns="http://www.w3.org/2000/svg">
    <g clip-path="url(#clip0_18_422)">
        <path d="M9.05472 35.625C8.08801 35.625 5.34085 35.1568 4.71978 36.0033C4.36613 36.4854 4.34091 37.28 4.22662 37.8516C3.97155 39.127 3.57707 40.4232 3.4497 41.7187C3.38484 42.3785 3.48212 43.0252 4.25049 43.1122C6.22892 43.3365 8.35183 43.125 10.3438 43.125H22.6485H28.9766C30.191 43.125 31.5453 43.2511 32.7266 42.9153C36.5687 41.8234 37.2916 36.4846 34.5681 33.9394C32.6728 32.1682 29.1642 31.8266 26.75 31.0547V30.8203C28.4607 30.3486 29.5124 28.9808 30.5703 27.6562C32.0589 25.7927 33.5347 23.9175 34.9942 22.0312C36.0027 20.7278 37.0351 19.793 36.711 18.0469C39.4259 16.6682 38.2693 10.438 34.836 11.0705C33.5415 11.309 32.7302 12.4916 32.471 13.7109C32.385 14.1151 32.4851 14.7191 32.2546 15.0682C31.896 15.6115 30.8781 16.0307 30.3828 16.5236C28.66 18.238 26.9453 19.961 25.2266 21.6797L23.586 17.8125C26.9898 17.8125 28.2141 15.2469 28.6403 12.1875C29.2527 7.7931 27.968 3.38393 23.586 1.50852C18.4335 -0.696676 12.6606 3.20748 13.5425 8.90625C13.7406 10.186 14.2689 11.4391 14.938 12.5391C15.1958 12.9627 15.9681 13.6519 15.8425 14.1797C15.654 14.972 14.5638 15.8666 14.0802 16.5234C12.9789 18.0194 12.0913 19.6423 11.3174 21.3281C9.19679 25.9479 9.05472 30.6473 9.05472 35.625Z" fill="#545454"/>
        <path d="M15.5 8.08594L25.1094 5.15625C23.9309 2.6816 19.5284 2.26744 17.4922 3.72523C15.9826 4.80594 15.5 6.31651 15.5 8.08594ZM15.9687 9.96094C16.736 12.6241 19.3442 14.7987 21.9453 15.5358C22.8345 15.7877 24.143 16.0929 24.9921 15.5849C25.8601 15.0655 26.2181 14.0585 26.439 13.125C26.9197 11.0927 27.0165 8.76944 26.2812 6.79687L15.9687 9.96094ZM35.0825 13.1456C33.9896 13.5661 34.1773 16.941 35.4113 16.5273C36.295 16.2311 36.2613 14.5152 35.9905 13.8282C35.8562 13.4877 35.5182 12.9779 35.0825 13.1456ZM17.4922 15.4687C16.2648 17.0856 14.9872 18.5931 14.0128 20.3906C11.408 25.1954 10.9297 30.2644 10.9297 35.625H15.1484C15.1484 32.9611 14.4229 29.7243 17.0234 28.125C16.503 27.4563 16.3786 26.1688 17.6094 26.2801C18.3311 26.3454 19.102 26.9542 19.7187 27.3047C21.1524 28.1194 22.6037 29.1335 24.2891 29.2765C26.1641 29.4356 27.5673 28.1873 28.6484 26.8359C30.7147 24.2532 33.0877 21.6745 34.8359 18.8672C34.2788 18.5202 33.2903 17.3919 32.6094 17.4648C31.9769 17.5325 31.2751 18.5609 30.8516 18.9844L26.8672 22.9688C26.379 23.457 25.7573 24.3492 24.9922 24.3495C24.398 24.3497 23.9002 23.8061 23.4687 23.4609C22.2852 22.5141 20.4288 21.5055 19.5713 20.2534C19.0483 19.4897 19.7806 18.5251 20.6562 18.837C21.2223 19.0385 21.6288 19.5592 22.1797 19.8047L21.1661 17.51L19.8359 16.8434L17.4922 15.4687Z" fill="white"/>
        <path d="M47.2578 38.7891V28.8281L45.5032 29.5897L45.3828 31.6406V37.0313L45.2623 39.3288L43.5078 40.1953V30.2344C43.0139 30.3691 42.059 30.5521 41.7532 30.996C41.393 31.519 41.6328 32.7823 41.6328 33.3984V38.4375C41.6328 39.0687 41.8183 40.0538 41.5621 40.639C41.2744 41.2961 40.3405 41.1792 40.0027 40.6513C39.5337 39.9187 39.7578 38.682 39.7578 37.8516V35.3906V31.6406C38.8001 31.9021 36.4989 32.3985 36.0947 33.4031C35.4818 34.927 36.3899 36.8667 36.2217 38.4375C35.9021 41.4236 36.0078 44.4475 36.0078 47.4609C36.0078 49.0867 35.7784 50.9107 36.1526 52.5C36.4078 53.5839 37.0957 54.4163 37.5011 55.4297C37.8606 56.3285 37.496 58.0827 38.0869 58.7773C38.6414 59.4292 40.7256 59.0625 41.5156 59.0625H48.8984C49.9288 59.0625 51.3004 59.301 52.2917 59.0116C53.6053 58.6283 52.4757 55.7863 53.0706 54.8438C54.1855 53.0777 56.2887 52.1186 57.1821 50.1562C57.6926 49.0349 57.5703 47.8426 57.5703 46.6406V41.0156C57.5703 39.9607 57.7919 38.6126 57.3969 37.6172C56.6983 35.8563 54.581 35.1428 52.8828 35.8594C52.8828 34.0714 53.4994 30.8508 52.5318 29.297C52.1464 28.678 49.7869 27.0937 49.2034 28.2795C48.9333 28.8284 49.1328 29.8654 49.1328 30.4688V35.7422C49.1328 36.4459 49.2715 37.3539 48.816 37.9532C48.4622 38.4185 47.7667 38.5511 47.2578 38.7891ZM15.1484 35.625H19.0156V30.9375C19.0156 30.4478 19.1856 29.5577 18.8951 29.1368C17.9376 27.7492 16.0974 28.1396 15.4477 29.5314C14.6697 31.198 15.1484 33.8194 15.1484 35.625Z" fill="#ECCA98"/>
        <path d="M19.0156 29.1797V35.625H20.7734V31.7578L20.653 30.1792L19.0156 29.1797Z" fill="white"/>
        <path d="M20.7734 30.1172L20.7802 35.2734L21.1889 36.5625L20.7734 38.7891L18.7568 37.5373L16.3203 37.5H10.9297V41.25H14.3281C14.3281 40.5094 13.963 38.015 15.2656 38.1405C16.471 38.2567 16.0859 40.4488 16.0859 41.25H28.0391C28.8637 41.25 31.4698 41.6684 32.0202 40.9466C32.3049 40.5731 32.1406 39.7031 32.1406 39.2578V34.6875L28.2734 33.6328C28.2734 35.7557 28.4507 37.9639 28.2665 40.0781C28.2042 40.7943 27.3228 41.5243 26.7035 40.8382C26.3124 40.405 26.5156 39.3327 26.5156 38.7891C26.5156 37.0748 26.7921 35.0982 26.4983 33.4111C26.4009 32.8521 25.7343 32.8595 25.3701 32.529C24.9669 32.1633 24.9432 31.596 24.6406 31.1719L24.5234 34.2188V40.1953L22.8861 39.3428L22.7656 36.9141V30.9375L20.7734 30.1172Z" fill="#ECCA98"/>
        <path d="M22.7656 31.0547V37.1484L22.8861 39.4324L24.5234 40.0781V31.2891L22.7656 31.0547Z" fill="white"/>
        <path d="M26.5156 33.1641V36.3281V38.4375C26.5156 39.0841 26.3105 40.1552 26.5863 40.7486C26.8438 41.3026 27.7707 41.1851 28.0856 40.7639C28.3993 40.3441 28.2734 39.633 28.2734 39.1406V35.3906C28.2734 34.9376 28.4352 34.0827 28.1529 33.6988C27.8618 33.3029 26.9683 33.2036 26.5156 33.1641Z" fill="white"/>
        <path d="M32.1406 34.8047V40.8984C35.3403 40.2793 34.5745 35.8249 32.1406 34.8047Z" fill="white"/>
        <path d="M36.125 36.9141V37.3828H36.2422L36.125 36.9141Z" fill="#ECCA98"/>
        <path d="M5.53906 41.25H9.05469V37.5C8.43383 37.5 6.94482 37.2244 6.44591 37.6205C5.79085 38.1404 5.74897 40.4387 5.53906 41.25ZM19.0156 37.5C19.2853 38.2842 19.9981 38.5557 20.7734 38.6719V37.5H19.0156ZM14.3281 41.25H16.0859C16.0859 40.5033 16.3307 39.2285 15.9655 38.5616C15.6392 37.9659 14.7903 37.9699 14.4663 38.5616C14.092 39.245 14.3281 40.4879 14.3281 41.25ZM52.5439 38.1734C51.4311 38.6323 52.1316 40.8154 51.8705 41.7188C51.5052 42.983 50.1977 43.3055 49.3889 44.1844C48.3863 45.2739 48.1959 46.7441 48.1953 48.1641C48.195 48.9275 48.0502 50.7941 49.362 50.4552C50.2065 50.237 50.0703 49.0587 50.0703 48.3984C50.0703 47.4785 49.9275 46.4934 50.4966 45.7036C51.5853 44.193 53.3983 43.8671 53.6845 41.7188C53.7887 40.9372 54.2911 37.453 52.5439 38.1734Z" fill="white"/>
        <path d="M36.125 38.3203V38.7891H36.2422L36.125 38.3203Z" fill="#ECCA98"/>
        <path d="M31.5547 43.0078V43.125H31.9062L31.5547 43.0078Z" fill="#ECCA98"/>
        <path d="M17.2578 43.125V43.2422C19.2862 44.1288 19.836 46.0171 19.836 48.0469C19.836 48.6956 20.0377 50.7952 18.783 50.4302C18.1964 50.2596 18.0859 49.6201 18.0786 49.1016C18.063 47.9825 18.2833 46.7105 17.684 45.7049C17.3564 45.1552 16.8187 44.9177 16.3203 44.5564C15.7973 44.1772 15.3729 43.4385 14.777 43.1957C13.6574 42.7395 11.6701 43.125 10.461 43.125C10.461 45.5021 9.91029 48.6337 11.2189 50.7422C12.183 52.2957 14.2175 53.2227 15.028 54.8438C15.5447 55.8771 14.4552 58.2807 15.63 58.942C16.1891 59.2568 17.2193 59.0625 17.8438 59.0625H23.2344H28.1563C28.7036 59.0625 29.5598 59.2247 29.9804 58.7909C30.612 58.1395 30.2131 56.5271 30.5119 55.6641C30.9238 54.4741 31.7313 53.5232 31.9987 52.2656C32.613 49.3767 32.1406 45.9593 32.1406 43.0078L26.8672 43.125H17.2578Z" fill="#ECCA98"/>
        <path d="M14.9141 43.125C15.5408 44.3331 16.9004 44.644 17.6266 45.7049C18.3655 46.7843 18.0068 48.2298 18.0833 49.4531C18.1166 49.9854 18.402 50.5261 19.0156 50.4836C20.3142 50.3936 19.942 47.0552 19.7306 46.1719C19.1105 43.5809 17.2432 43.125 14.9141 43.125Z" fill="white"/>
    </g>
    <defs>
        <clipPath id="clip0_18_422">
            <rect width="60" height="60" fill="white" transform="translate(0.5)"/>
        </clipPath>
    </defs>
</svg>