<svg width="62" height="61" viewBox="0 0 62 61" fill="none" xmlns="http://www.w3.org/2000/svg">
    <path d="M34.2247 7.34919C34.6064 7.00133 35.1902 7.00133 35.5719 7.34919L42.6784 13.8258C42.848 13.9803 43.0656 14.0719 43.2947 14.085L52.8166 14.631C53.3247 14.6602 53.7298 15.0662 53.7578 15.5744L54.2951 25.3206C54.3074 25.5437 54.3941 25.7564 54.5414 25.9245L60.9229 33.2087C61.2533 33.5859 61.2533 34.1494 60.9229 34.5266L54.5414 41.8108C54.3941 41.979 54.3074 42.1916 54.2951 42.4148L53.7578 52.161C53.7298 52.6691 53.3247 53.0751 52.8166 53.1043L43.2947 53.6503C43.0656 53.6634 42.848 53.755 42.6784 53.9096L35.5719 60.3861C35.1902 60.734 34.6064 60.734 34.2247 60.3861L27.1182 53.9096C26.9486 53.755 26.7309 53.6634 26.5018 53.6503L16.98 53.1043C16.4719 53.0751 16.0667 52.6691 16.0387 52.161L15.5015 42.4148C15.4892 42.1916 15.4025 41.979 15.2552 41.8108L8.87368 34.5266C8.54325 34.1494 8.54325 33.5859 8.87368 33.2087L15.2552 25.9245C15.4025 25.7564 15.4892 25.5437 15.5015 25.3206L16.0387 15.5744C16.0667 15.0662 16.4719 14.6602 16.98 14.631L26.5018 14.085C26.7309 14.0719 26.9486 13.9803 27.1182 13.8258L34.2247 7.34919Z" fill="#ECCA98"/>
    <path d="M39.8003 47.3037L39.8003 47.3037L35.1959 51.5L30.5914 47.3037L29.9178 48.0428L30.5914 47.3037C30.2522 46.9945 29.8169 46.8114 29.3587 46.7852L23.1869 46.4312L22.838 40.1019C22.8134 39.6556 22.64 39.2303 22.3454 38.8941L18.1996 34.1618L22.3454 29.4295C22.64 29.0933 22.8134 28.668 22.838 28.2217L23.1869 21.8923L29.3587 21.5384C29.8169 21.5122 30.2522 21.3291 30.5914 21.0199L29.9178 20.2808L30.5914 21.0199L35.1959 16.8236L39.8003 21.0199C40.1395 21.3291 40.5748 21.5122 41.033 21.5384L47.2048 21.8923L47.5537 28.2217C47.5783 28.668 47.7517 29.0933 48.0463 29.4295L52.1921 34.1618L48.0463 38.8941C47.7517 39.2303 47.5783 39.6556 47.5537 40.1019L47.2048 46.4312L41.033 46.7852C40.5748 46.8114 40.1395 46.9945 39.8003 47.3037Z" fill="#ECCA98" stroke="white" stroke-width="2"/>
    <path d="M39.3337 14.7396V35.3488" stroke="#545454" stroke-width="1.92396" stroke-linecap="round"/>
    <path d="M32.1543 14.7394V32.6399C32.1543 32.7281 32.1458 32.8159 32.1254 32.9017C31.7768 34.3687 30.4549 37.0661 27.6671 37.0661C24.7953 37.0661 22.8807 34.7762 22.2824 33.6313M22.2824 33.6313V10.4458M22.2824 33.6313C21.6841 35.0625 19.5901 37.7531 16.0003 37.0661C12.4106 36.3792 11.5131 34.49 11.5131 33.6313V26.7615M11.5131 26.7615V16.0221C11.5131 15.3137 10.93 14.7435 10.2573 14.9654C5.71283 16.4645 -1.12045 24.9942 2.53873 27.6202C5.41054 29.6811 9.71826 27.9065 11.5131 26.7615Z" stroke="#545454" stroke-width="1.92396" stroke-linecap="round"/>
    <path d="M25.8721 1C26.7695 1.57248 28.2054 3.23267 26.7695 5.2936C24.9746 6.15232 22.2823 5.2936 22.2823 3.57616C21.3848 5.2936 20.4874 6.15232 18.6925 5.2936C16.8976 4.43488 17.7951 2.71744 18.6925 1.85872" stroke="#545454" stroke-width="1.92396" stroke-linecap="round"/>
</svg>