<svg width="61" height="60" viewBox="0 0 61 60" fill="none" xmlns="http://www.w3.org/2000/svg">
    <path d="M34.8001 9.61292C35.1817 9.26552 35.7649 9.26551 36.1465 9.61292L42.7773 15.6498C42.9468 15.8042 43.1643 15.8956 43.3933 15.9087L52.2778 16.4177C52.7859 16.4468 53.1911 16.8528 53.2191 17.3609L53.7204 26.4461C53.7327 26.6695 53.8196 26.8822 53.9671 27.0504L59.9218 33.8407C60.2527 34.218 60.2527 34.782 59.9218 35.1593L53.9671 41.9496C53.8196 42.1178 53.7327 42.3305 53.7204 42.5538L53.2191 51.6391C53.1911 52.1472 52.7859 52.5532 52.2778 52.5823L43.3933 53.0913C43.1643 53.1044 42.9468 53.1958 42.7773 53.3502L36.1465 59.3871C35.7649 59.7345 35.1817 59.7345 34.8001 59.3871L28.1693 53.3502C27.9997 53.1958 27.7823 53.1044 27.5533 53.0913L18.6688 52.5823C18.1607 52.5532 17.7555 52.1472 17.7275 51.6391L17.2262 42.5538C17.2138 42.3305 17.127 42.1178 16.9795 41.9496L11.0247 35.1593C10.6939 34.782 10.6939 34.218 11.0247 33.8407L16.9795 27.0504C17.127 26.8822 17.2138 26.6695 17.2262 26.4461L17.7275 17.3609C17.7555 16.8528 18.1607 16.4468 18.6688 16.4177L27.5533 15.9087C27.7823 15.8956 27.9997 15.8042 28.1693 15.6498L34.8001 9.61292Z" fill="#ECCA98"/>
    <path d="M47.8122 39.1683L48.5641 39.8276L47.8122 39.1683C47.5173 39.5046 47.3436 39.9301 47.319 40.3768L46.9948 46.2507L41.262 46.5791C40.8041 46.6053 40.3691 46.7882 40.03 47.0969L35.7531 50.9907L31.4763 47.0969C31.1371 46.7882 30.7021 46.6053 30.2442 46.5791L24.5114 46.2507L24.1873 40.3768C24.1626 39.9301 23.9889 39.5046 23.694 39.1683L19.8425 34.7764L23.694 30.3846C23.9889 30.0483 24.1626 29.6228 24.1873 29.1761L24.5114 23.3022L30.2442 22.9738C30.7021 22.9476 31.1371 22.7647 31.4763 22.456L35.7531 18.5621L40.03 22.456C40.3691 22.7647 40.8041 22.9476 41.262 22.9738L46.9948 23.3022L47.319 29.1761C47.3436 29.6228 47.5173 30.0483 47.8122 30.3846L51.6637 34.7764L47.8122 39.1683Z" fill="#ECCA98" stroke="white" stroke-width="2"/>
    <path d="M7.13094 0.0622177C6.32834 0.200798 5.57529 0.903599 5.34739 1.71529C5.29784 1.91326 5.2483 2.41809 5.2483 2.85363C5.2483 3.54653 5.22848 3.61582 5.07985 3.55643C4.4457 3.31886 3.16749 3.012 2.78105 3.012C2.19644 3.012 1.61183 3.27927 1.15603 3.7544C0.452519 4.477 0.482245 3.79399 0.51197 16.1871L0.541696 27.3131L0.819138 27.7883C1.20558 28.4317 1.71092 28.7385 3.20712 29.1939L4.45561 29.5799V33.3612V37.1425L4.73305 37.6671C5.06995 38.3204 5.71401 38.7559 6.41752 38.8153C6.94268 38.8648 6.76432 38.9143 15.0876 36.2813C17.862 35.4003 20.2203 34.6876 20.3193 34.6876C20.4283 34.6876 23.4009 35.6082 26.9284 36.7267C34.2014 39.043 34.2212 39.0529 35.1229 38.4986C35.4796 38.2808 35.6877 38.0531 35.8858 37.6671L36.1633 37.1425V33.3612V29.5898L37.4118 29.2038C38.908 28.7286 39.4232 28.4317 39.7997 27.7883L40.0772 27.3131L40.1069 16.1871C40.1366 3.79399 40.1664 4.477 39.4628 3.7544C39.007 3.28917 38.4224 3.0219 37.8477 3.012C37.4712 3.012 36.1534 3.32876 35.539 3.56633C35.4201 3.60592 35.3904 3.43764 35.3508 2.64576C35.2814 1.26985 34.8751 0.576946 33.8843 0.161201C33.0321 -0.195148 32.9132 -0.155552 26.433 2.3587C23.1235 3.64552 20.3689 4.69477 20.3193 4.69477C20.2599 4.69477 17.5251 3.65541 14.2354 2.37849C10.9557 1.11147 8.1119 0.0523186 7.92364 0.0226212C7.73537 -0.00707245 7.37866 0.012722 7.13094 0.0622177ZM12.1051 3.24957L16.2964 4.88284L16.346 12.5642L16.3955 20.2554L16.6333 20.4435C16.9504 20.7008 17.3963 20.681 17.6836 20.3841L17.9314 20.1465V12.8314V5.50646L18.7241 5.81332L19.5167 6.12017V15.5635V25.0067L18.9222 24.4722C17.9908 23.6308 17.0891 23.2349 8.74605 20.0277L6.83368 19.2952V10.723C6.83368 2.20032 6.83368 2.15083 7.04177 1.88356C7.1904 1.69549 7.33903 1.6262 7.58674 1.6262C7.78491 1.6262 9.61801 2.28941 12.1051 3.24957ZM33.5771 1.88356C33.7852 2.15083 33.7852 2.20032 33.7852 10.7329V19.315L30.3469 20.6316C23.5595 23.225 22.6281 23.6407 21.6669 24.5019L21.1021 25.0067V15.5635V6.12017L21.4291 6.00139C21.5976 5.9321 24.2035 4.92244 27.1959 3.7643C30.6144 2.42799 32.7844 1.6361 33.0123 1.6361C33.2898 1.6262 33.4186 1.68559 33.5771 1.88356ZM4.25744 4.94224L5.19876 5.25899L5.2483 14.7023C5.27803 19.8991 5.32757 24.1951 5.37711 24.2643C5.41675 24.3237 5.90227 24.5613 6.46706 24.7692C7.02195 24.9869 10.1134 26.1946 13.3338 27.4418C16.5541 28.6989 19.4672 29.8175 19.8041 29.9264L20.4085 30.1243L25.4322 28.1941C32.7547 25.3928 34.4788 24.7098 34.9544 24.4326L35.3706 24.1852V14.7419V5.29859L36.4605 4.95214C37.709 4.54629 37.9369 4.52649 38.254 4.78386L38.4918 4.97193L38.5215 15.9099L38.5513 26.8479L38.3233 27.0954C38.1351 27.3032 36.5002 27.8476 29.2966 30.1243C24.4513 31.6586 20.4184 32.9058 20.3293 32.9058C20.2302 32.9058 19.8933 32.8168 19.5663 32.7178C19.2393 32.6188 17.208 31.9754 15.0579 31.2924C12.9077 30.6094 9.78646 29.6195 8.12181 29.0949C3.04858 27.5012 2.3847 27.2636 2.22617 27.036C2.09735 26.8479 2.07754 25.472 2.07754 16.1178C2.07754 10.2281 2.10726 5.27879 2.13699 5.11051C2.17662 4.90264 2.29553 4.76406 2.51352 4.65518C2.86032 4.4869 2.92968 4.4968 4.25744 4.94224ZM10.6683 22.4529C12.7293 23.2349 14.8201 24.0466 15.3056 24.2643C17.6539 25.274 18.6646 26.1451 19.1699 27.5507C19.2492 27.7883 19.2988 28.006 19.2789 28.0357C19.2492 28.0555 16.4451 26.9964 13.0365 25.67L6.83368 23.2646V22.146C6.83368 21.5323 6.8535 21.0275 6.87332 21.0275C6.89314 21.0275 8.59742 21.6709 10.6683 22.4529ZM33.7852 22.146V23.2646L27.6121 25.6601C24.2134 26.9766 21.4093 28.0555 21.3697 28.0555C21.2508 28.0555 21.4093 27.5507 21.7066 26.9568C22.1524 26.0659 22.9848 25.3829 24.5107 24.6405C25.2241 24.294 26.5915 23.7199 27.5427 23.3636C28.494 23.0072 30.2577 22.3341 31.4567 21.8689C32.6556 21.4135 33.6663 21.0374 33.7158 21.0374C33.7555 21.0275 33.7852 21.5323 33.7852 22.146ZM11.8276 31.9655C14.83 32.9157 17.3666 33.7274 17.4657 33.7769C17.5846 33.8264 15.9001 34.3906 12.1348 35.5587C6.40761 37.3305 6.3878 37.3305 6.12026 36.9247C6.08063 36.8653 6.04099 35.3112 6.04099 33.4602C6.04099 30.3916 6.0509 30.1144 6.20944 30.1738C6.29862 30.2134 8.82532 31.0152 11.8276 31.9655ZM34.5283 36.8455C34.4293 37.2711 34.0825 37.2909 32.9231 36.9247C31.9025 36.598 27.0275 35.0538 24.3224 34.1927C23.6189 33.965 23.0343 33.7769 23.0244 33.767C23.0046 33.7571 25.5907 32.9355 28.7615 31.9556L34.5283 30.154L34.5581 33.3909C34.568 35.1627 34.5581 36.7168 34.5283 36.8455Z" fill="#545454"/>
</svg>
