<svg width="60" height="60" viewBox="0 0 60 60" fill="none" xmlns="http://www.w3.org/2000/svg">
    <path d="M26.8359 33.9844H26.9531C28.2325 38.3325 33.1597 38.4375 36.7968 38.4375C38.0606 38.4375 39.6409 38.6978 40.7812 38.0429C41.6739 37.5303 41.8757 36.7092 42.3046 35.8594C42.9953 37.1908 44.488 38.0743 45.9375 38.3292C46.4873 38.426 47.1823 38.5505 47.577 38.0397C48.2642 37.1504 47.8125 34.7215 47.8125 33.6328C47.8125 31.4843 48.7266 26.7722 46.4062 25.6003C45.5804 25.1832 44.488 25.3125 43.5937 25.3125C45.6896 23.1226 47.3753 20.4097 47.7786 17.3437C48.691 10.4041 43.4516 3.13419 36.2109 2.8171C32.8775 2.67112 29.748 3.39055 27.0703 5.46855C25.5957 6.61286 24.4018 8.05909 23.0859 9.37499C21.042 11.4189 18.973 13.4708 17.0027 15.5859C15.7632 16.9165 14.4997 18.5932 13.0078 19.6457C12.1703 20.2364 9.97099 19.5831 8.9062 19.7214C5.61601 20.149 2.62256 22.5485 1.48767 25.664C-0.384058 30.8025 2.39864 36.6474 7.73433 38.153C10.669 38.981 14.3087 38.4375 17.3437 38.4375H22.7343C23.353 38.4375 24.3868 38.6319 24.9342 38.2993C25.3115 38.0701 25.3946 37.5287 25.5485 37.1484C25.9726 36.0998 26.5371 35.0771 26.8359 33.9844Z" fill="#545454"/>
    <path d="M14.8828 20.8594C17.1952 22.281 19.4455 24.7937 19.5703 27.6562C20.3243 27.1623 20.7498 25.8319 21.2525 25.0781C22.2589 23.5691 23.4969 22.2087 24.8438 20.9966C30.6516 15.7694 38.615 14.8821 45.8203 17.2266C45.8203 15.4691 45.9137 13.7584 45.3005 12.0703C43.2914 6.54012 37.2769 3.49045 31.6406 5.27678C29.0406 6.10079 27.3055 7.96794 25.4297 9.84374C23.2062 12.0673 20.9568 14.3093 18.8473 16.6406C17.6501 17.9638 15.6395 19.2369 14.8828 20.8594Z" fill="white"/>
    <path d="M19.6875 29.6484H19.8047C20.3024 28.4531 20.913 26.7939 21.7543 25.8063C22.2507 25.2237 23.1142 25.3549 23.3382 26.1333C23.6889 27.3514 21.7294 28.5591 21.9134 29.7656C22.0013 30.3423 22.8129 30.9012 23.2031 31.2889C23.5352 31.6189 23.8336 31.9116 24.2578 32.1094C24.6519 30.4069 25.6131 28.7764 26.6962 27.4219C27.2116 26.7773 28.3364 25.9724 28.58 25.1907C28.7264 24.7208 28.3317 24.2801 28.1029 23.9062C27.5711 23.0375 26.4244 21.7648 26.3088 20.7422C26.2365 20.1018 26.9413 19.5397 27.5373 19.8274C28.0731 20.0862 28.3464 20.7315 28.6434 21.2109C28.9611 21.7236 29.2532 22.2795 29.6484 22.7344C30.4385 21.065 30.967 19.1617 31.9175 17.5799C32.3094 16.9278 33.1849 16.6656 33.6101 17.4732C33.8975 18.0191 33.4446 18.7201 33.2319 19.2187C32.6592 20.5608 31.9245 21.9176 31.5234 23.3203C34.0145 22.2846 36.3198 21.6786 39.0234 21.5625C38.7183 21.1293 38.3264 20.794 37.9861 20.3906C37.4973 19.8112 37.6923 18.6212 38.6719 18.9402C39.6478 19.2579 40.6591 20.7243 41.3666 21.4453C41.647 21.7311 42.0356 22.063 42.0356 22.5C42.0356 22.937 41.647 23.2689 41.3666 23.5547C40.6591 24.2757 39.6478 25.7421 38.6719 26.0598C37.6923 26.3788 37.4973 25.1887 37.9861 24.6094C38.3264 24.206 38.7183 23.8707 39.0234 23.4375C36.277 23.4375 32.1332 23.8536 30.2927 26.2547C29.5595 27.2114 29.1679 28.6598 28.6934 29.7656C28.4727 30.2795 28.146 30.8317 28.1695 31.4062C28.341 35.606 33.4121 37.5172 37.0243 36.5252C37.7209 36.334 37.5 35.2353 37.5 34.6875C37.5 32.8978 37.2061 30.822 37.5267 29.0625C37.7809 27.668 40.1566 26.0543 41.1328 25.0781C43.5075 22.7034 45.1706 20.577 45.8203 17.2266C38.6347 14.0414 29.3269 16.3846 23.9062 21.7969C21.7078 23.9919 19.6875 26.4615 19.6875 29.6484Z" fill="#ECCA98"/>
    <path d="M32.4609 16.875V16.9922H33.0469L32.4609 16.875ZM45.7031 17.4609V17.8125H45.8203L45.7031 17.4609ZM45.5859 18.0469V18.3984H45.7031L45.5859 18.0469Z" fill="#ECCA98"/>
    <path d="M47.5781 18.0469C47.1847 21.093 45.2611 22.9454 43.5938 25.3125L46.0547 25.4297C46.3121 24.1584 47.3126 24.56 48.0469 25.2016C49.3669 26.355 50.4768 27.6705 51.3745 29.1797C53.9099 33.4416 53.9823 38.9767 51.705 43.3594C46.3386 53.687 31.659 54.0021 25.6419 44.1797C24.6196 42.5108 23.7571 40.4156 23.6719 38.4375H17.8125C18.3338 42.5621 19.7211 46.4469 22.3927 49.6875C24.6881 52.4719 27.673 54.6395 31.0547 55.9043C41.9359 59.9742 54.2153 54.2268 58.0436 43.2422C60.6025 35.8995 58.5531 27.3812 53.0859 21.9141C51.6097 20.4379 49.6324 18.6398 47.5781 18.0469Z" fill="#ECCA98"/>
    <path d="M39.0234 21.5625C36.8789 21.6068 33.377 21.7723 31.6729 23.2779C31.0161 23.8581 30.5883 25.3049 30.3516 26.1328C33.1934 24.3791 35.6529 23.4375 39.0234 23.4375C38.5736 23.8874 36.6437 25.676 38.2083 26.0802C39.0615 26.3006 39.7968 25.2423 40.3125 24.7266C40.8704 24.1686 42.0448 23.3722 42.0448 22.5C42.0448 21.5249 39.5883 19.1421 38.6719 18.9198C37.3205 18.592 37.6522 20.1488 38.208 20.742C38.4715 21.0231 38.7511 21.2902 39.0234 21.5625Z" fill="white"/>
    <path d="M9.02345 21.6797C6.81138 22.5142 5.06315 23.2593 3.80445 25.4297C1.98213 28.572 2.93024 34.2757 6.79689 35.5078L8.44691 25.6641L9.02345 21.6797ZM11.1328 21.6797L10.5469 25.3125C12.2541 25.3125 14.0097 26.1704 14.0608 28.125C14.076 28.7061 14.1803 29.528 13.581 29.8617C11.7329 30.8911 12.7001 27.0011 10.8989 27.294C9.95523 27.4474 9.93724 28.6795 9.81483 29.4141C9.43731 31.6792 8.7704 34.0338 8.67189 36.3281C9.23698 36.433 10.6804 36.8184 11.1647 36.442C11.4841 36.1939 11.5313 35.5174 11.6737 35.1562C11.9786 34.3835 12.4463 33.6509 13.0184 33.0486C14.2521 31.7498 15.8404 31.1573 17.5781 30.9375C18.1635 26.3063 15.8817 22.5744 11.1328 21.6797Z" fill="white"/>
    <path d="M25.3125 37.9688H25.1953C24.7663 38.455 24.2869 38.4372 23.6719 38.4375C23.8382 46.495 32.7954 52.4715 40.3125 51.3952C47.833 50.3182 53.3203 44.0184 53.3203 36.4453C53.3203 34.0466 52.7889 31.6579 51.6435 29.5313C50.7397 27.8534 49.5157 26.3252 48.0469 25.1116C47.6231 24.7616 46.2682 23.9922 46.1229 25.0782C46.0541 25.592 46.9096 26.0284 47.2016 26.3677C48.2094 27.5386 49.2199 28.89 49.989 30.2344C52.3705 34.3977 52.0492 39.8736 49.4115 43.8281C44.9366 50.5372 35.3086 51.6516 29.4141 46.1613C27.0225 43.9338 25.9031 41.1033 25.3125 37.9688Z" fill="white"/>
    <path d="M22.2656 25.3125V25.4297H22.7344L22.2656 25.3125Z" fill="#ECCA98"/>
    <path d="M25.1953 33.1641L28.2422 25.7812C26.7311 26.5175 25.4863 28.8616 24.8276 30.3516C24.6188 30.8237 24.189 31.579 24.272 32.1094C24.3454 32.5781 24.8382 32.9123 25.1953 33.1641Z" fill="white"/>
    <path d="M23.3203 26.0156V26.6016H23.4375L23.3203 26.0156Z" fill="#ECCA98"/>
    <path d="M42.1875 27.1875C42.1875 30.4515 42.1207 35.1436 45.9375 36.4453V29.8828C45.9375 29.1606 46.1615 28.0078 45.5592 27.4727C44.8559 26.848 43.0751 27.1875 42.1875 27.1875Z" fill="#ECCA98"/>
    <path d="M47.6953 27.1875C48.1311 29.5354 47.8125 32.184 47.8125 34.5703C47.8125 35.4936 48.0669 36.867 47.7255 37.7326C47.4289 38.4845 46.6122 38.487 45.9375 38.3653C44.469 38.1007 43.0525 37.1532 42.3046 35.8594H42.1875C41.9988 37.1182 41.0373 38.252 39.7265 38.4158C39.0602 38.499 38.2122 38.2498 37.6171 38.6254C36.2921 39.462 35.5173 41.2679 34.1015 41.9494C33.5558 42.212 32.8719 41.7544 32.9738 41.1328C33.0659 40.5707 33.7237 40.1045 34.1015 39.7266C34.5152 39.3128 34.9361 38.9162 35.2734 38.4375C31.7779 38.4375 28.5738 37.5687 26.9531 34.1016H26.8359C26.3845 35.2651 25.4667 36.6055 25.3416 37.8516C25.2442 38.8226 25.6718 39.992 25.9766 40.8984C26.7062 43.0678 28.0034 45.0779 29.7656 46.5523C34.9516 50.8913 42.95 50.7908 47.8079 45.9329C51.5573 42.1834 52.5367 36.4011 50.6471 31.5234C50.0518 29.9866 49.0416 28.1784 47.6953 27.1875Z" fill="#ECCA98"/>
    <path d="M40.1953 28.5938C38.572 30.2365 39.375 34.3416 39.375 36.5625C39.8942 36.3844 40.2356 36.0811 40.2997 35.5078C40.4703 33.9837 40.3125 32.3544 40.3125 30.8203C40.3125 30.1304 40.4639 29.2338 40.1953 28.5938Z" fill="#ECCA98"/>
    <path d="M37.5 29.5312C37.5 31.5848 38.0698 34.6649 37.2656 36.5625H39.375V29.6484C38.6321 30.0218 38.1711 30.0537 37.5 29.5312Z" fill="white"/>
    <path d="M28.125 31.5234V31.875H28.2422L28.125 31.5234Z" fill="#ECCA98"/>
    <path d="M20.8594 31.6406C20.1209 32.886 19.39 32.8125 18.0469 32.8125L17.8125 36.5625H23.5547C23.5547 35.9324 23.7366 35.0512 23.565 34.4531C23.2863 33.4818 21.6642 32.2076 20.8594 31.6406Z" fill="#ECCA98"/>
    <path d="M13.2422 36.5625H17.8125L18.0469 32.8125C15.6172 33.1195 14.0258 34.1582 13.2422 36.5625Z" fill="white"/>
    <path d="M23.6719 34.5703L23.5547 36.5625H23.6719C24.0668 35.8218 24.4485 35.1639 23.6719 34.5703Z" fill="white"/>
    <path d="M32.8125 36.4453V36.5625H33.1641L32.8125 36.4453Z" fill="#ECCA98"/>
    <path d="M32.5781 38.3203V38.4375H33.0469L32.5781 38.3203ZM45.9375 38.3203V38.4375H46.2891L45.9375 38.3203Z" fill="#ECCA98"/>
    <path d="M37.7344 38.4375C35.8321 38.4375 35.1338 38.5581 33.7505 39.9609C33.3186 40.399 32.587 41.1408 33.1339 41.7851C33.5811 42.312 34.282 41.9491 34.6875 41.5888C35.7329 40.6603 36.9297 39.58 37.7344 38.4375Z" fill="white"/>
</svg>