<svg width="60" height="60" viewBox="0 0 60 60" fill="none" xmlns="http://www.w3.org/2000/svg">
    <g clip-path="url(#clip0_18_504)">
        <path d="M8.55472 35.625C7.58801 35.625 4.84085 35.1568 4.21978 36.0033C3.86613 36.4854 3.84091 37.28 3.72662 37.8516C3.47155 39.127 3.07707 40.4232 2.9497 41.7187C2.88484 42.3785 2.98212 43.0252 3.75049 43.1122C5.72892 43.3365 7.85183 43.125 9.84378 43.125H22.1485H28.4766C29.691 43.125 31.0453 43.2511 32.2266 42.9153C36.0687 41.8234 36.7916 36.4846 34.0681 33.9394C32.1728 32.1682 28.6642 31.8266 26.25 31.0547V30.8203C27.9607 30.3486 29.0124 28.9808 30.0703 27.6562C31.5589 25.7927 33.0347 23.9175 34.4942 22.0312C35.5027 20.7278 36.5351 19.793 36.211 18.0469C38.9259 16.6682 37.7693 10.438 34.336 11.0705C33.0415 11.309 32.2302 12.4916 31.971 13.7109C31.885 14.1151 31.9851 14.7191 31.7546 15.0682C31.396 15.6115 30.3781 16.0307 29.8828 16.5236C28.16 18.238 26.4453 19.961 24.7266 21.6797L23.086 17.8125C26.4898 17.8125 27.7141 15.2469 28.1403 12.1875C28.7527 7.7931 27.468 3.38393 23.086 1.50852C17.9335 -0.696676 12.1606 3.20748 13.0425 8.90625C13.2406 10.186 13.7689 11.4391 14.438 12.5391C14.6958 12.9627 15.4681 13.6519 15.3425 14.1797C15.154 14.972 14.0638 15.8666 13.5802 16.5234C12.4789 18.0194 11.5913 19.6423 10.8174 21.3281C8.69679 25.9479 8.55472 30.6473 8.55472 35.625Z" fill="#545454"/>
        <path d="M15 8.08594L24.6094 5.15625C23.4309 2.6816 19.0284 2.26744 16.9922 3.72523C15.4826 4.80594 15 6.31651 15 8.08594ZM15.4687 9.96094C16.236 12.6241 18.8442 14.7987 21.4453 15.5358C22.3345 15.7877 23.643 16.0929 24.4921 15.5849C25.3601 15.0655 25.7181 14.0585 25.939 13.125C26.4197 11.0927 26.5165 8.76944 25.7812 6.79687L15.4687 9.96094ZM34.5825 13.1456C33.4896 13.5661 33.6773 16.941 34.9113 16.5273C35.795 16.2311 35.7613 14.5152 35.4905 13.8282C35.3562 13.4877 35.0182 12.9779 34.5825 13.1456ZM16.9922 15.4687C15.7648 17.0856 14.4872 18.5931 13.5128 20.3906C10.908 25.1954 10.4297 30.2644 10.4297 35.625H14.6484C14.6484 32.9611 13.9229 29.7243 16.5234 28.125C16.003 27.4563 15.8786 26.1688 17.1094 26.2801C17.8311 26.3454 18.602 26.9542 19.2187 27.3047C20.6524 28.1194 22.1037 29.1335 23.7891 29.2765C25.6641 29.4356 27.0673 28.1873 28.1484 26.8359C30.2147 24.2532 32.5877 21.6745 34.3359 18.8672C33.7788 18.5202 32.7903 17.3919 32.1094 17.4648C31.4769 17.5325 30.7751 18.5609 30.3516 18.9844L26.3672 22.9688C25.879 23.457 25.2573 24.3492 24.4922 24.3495C23.898 24.3497 23.4002 23.8061 22.9687 23.4609C21.7852 22.5141 19.9288 21.5055 19.0713 20.2534C18.5483 19.4897 19.2806 18.5251 20.1562 18.837C20.7223 19.0385 21.1288 19.5592 21.6797 19.8047L20.6661 17.51L19.3359 16.8434L16.9922 15.4687Z" fill="white"/>
        <path d="M46.7578 38.7891V28.8281L45.0032 29.5897L44.8828 31.6406V37.0313L44.7623 39.3288L43.0078 40.1953V30.2344C42.5139 30.3691 41.559 30.5521 41.2532 30.996C40.893 31.519 41.1328 32.7823 41.1328 33.3984V38.4375C41.1328 39.0687 41.3183 40.0538 41.0621 40.639C40.7744 41.2961 39.8405 41.1792 39.5027 40.6513C39.0337 39.9187 39.2578 38.682 39.2578 37.8516V35.3906V31.6406C38.3001 31.9021 35.9989 32.3985 35.5947 33.4031C34.9818 34.927 35.8899 36.8667 35.7217 38.4375C35.4021 41.4236 35.5078 44.4475 35.5078 47.4609C35.5078 49.0867 35.2784 50.9107 35.6526 52.5C35.9078 53.5839 36.5957 54.4163 37.0011 55.4297C37.3606 56.3285 36.996 58.0827 37.5869 58.7773C38.1414 59.4292 40.2256 59.0625 41.0156 59.0625H48.3984C49.4288 59.0625 50.8004 59.301 51.7917 59.0116C53.1053 58.6283 51.9757 55.7863 52.5706 54.8438C53.6855 53.0777 55.7887 52.1186 56.6821 50.1562C57.1926 49.0349 57.0703 47.8426 57.0703 46.6406V41.0156C57.0703 39.9607 57.2919 38.6126 56.8969 37.6172C56.1983 35.8563 54.081 35.1428 52.3828 35.8594C52.3828 34.0714 52.9994 30.8508 52.0318 29.297C51.6464 28.678 49.2869 27.0937 48.7034 28.2795C48.4333 28.8284 48.6328 29.8654 48.6328 30.4688V35.7422C48.6328 36.4459 48.7715 37.3539 48.316 37.9532C47.9622 38.4185 47.2667 38.5511 46.7578 38.7891ZM14.6484 35.625H18.5156V30.9375C18.5156 30.4478 18.6856 29.5577 18.3951 29.1368C17.4376 27.7492 15.5974 28.1396 14.9477 29.5314C14.1697 31.198 14.6484 33.8194 14.6484 35.625Z" fill="#ECCA98"/>
        <path d="M18.5156 29.1797V35.625H20.2734V31.7578L20.153 30.1792L18.5156 29.1797Z" fill="white"/>
        <path d="M20.2734 30.1172L20.2802 35.2734L20.6889 36.5625L20.2734 38.7891L18.2568 37.5373L15.8203 37.5H10.4297V41.25H13.8281C13.8281 40.5094 13.463 38.015 14.7656 38.1405C15.971 38.2567 15.5859 40.4488 15.5859 41.25H27.5391C28.3637 41.25 30.9698 41.6684 31.5202 40.9466C31.8049 40.5731 31.6406 39.7031 31.6406 39.2578V34.6875L27.7734 33.6328C27.7734 35.7557 27.9507 37.9639 27.7665 40.0781C27.7042 40.7943 26.8228 41.5243 26.2035 40.8382C25.8124 40.405 26.0156 39.3327 26.0156 38.7891C26.0156 37.0748 26.2921 35.0982 25.9983 33.4111C25.9009 32.8521 25.2343 32.8595 24.8701 32.529C24.4669 32.1633 24.4432 31.596 24.1406 31.1719L24.0234 34.2188V40.1953L22.3861 39.3428L22.2656 36.9141V30.9375L20.2734 30.1172Z" fill="#ECCA98"/>
        <path d="M22.2656 31.0547V37.1484L22.3861 39.4324L24.0234 40.0781V31.2891L22.2656 31.0547Z" fill="white"/>
        <path d="M26.0156 33.1641V36.3281V38.4375C26.0156 39.0841 25.8105 40.1552 26.0863 40.7486C26.3438 41.3026 27.2707 41.1851 27.5856 40.7639C27.8993 40.3441 27.7734 39.633 27.7734 39.1406V35.3906C27.7734 34.9376 27.9352 34.0827 27.6529 33.6988C27.3618 33.3029 26.4683 33.2036 26.0156 33.1641Z" fill="white"/>
        <path d="M31.6406 34.8047V40.8984C34.8403 40.2793 34.0745 35.8249 31.6406 34.8047Z" fill="white"/>
        <path d="M35.625 36.9141V37.3828H35.7422L35.625 36.9141Z" fill="#ECCA98"/>
        <path d="M5.03906 41.25H8.55469V37.5C7.93383 37.5 6.44482 37.2244 5.94591 37.6205C5.29085 38.1404 5.24897 40.4387 5.03906 41.25ZM18.5156 37.5C18.7853 38.2842 19.4981 38.5557 20.2734 38.6719V37.5H18.5156ZM13.8281 41.25H15.5859C15.5859 40.5033 15.8307 39.2285 15.4655 38.5616C15.1392 37.9659 14.2903 37.9699 13.9663 38.5616C13.592 39.245 13.8281 40.4879 13.8281 41.25ZM52.0439 38.1734C50.9311 38.6323 51.6316 40.8154 51.3705 41.7188C51.0052 42.983 49.6977 43.3055 48.8889 44.1844C47.8863 45.2739 47.6959 46.7441 47.6953 48.1641C47.695 48.9275 47.5502 50.7941 48.862 50.4552C49.7065 50.237 49.5703 49.0587 49.5703 48.3984C49.5703 47.4785 49.4275 46.4934 49.9966 45.7036C51.0853 44.193 52.8983 43.8671 53.1845 41.7188C53.2887 40.9372 53.7911 37.453 52.0439 38.1734Z" fill="white"/>
        <path d="M35.625 38.3203V38.7891H35.7422L35.625 38.3203Z" fill="#ECCA98"/>
        <path d="M31.0547 43.0078V43.125H31.4062L31.0547 43.0078Z" fill="#ECCA98"/>
        <path d="M16.7578 43.125V43.2422C18.7862 44.1288 19.336 46.0171 19.336 48.0469C19.336 48.6956 19.5377 50.7952 18.283 50.4302C17.6964 50.2596 17.5859 49.6201 17.5786 49.1016C17.563 47.9825 17.7833 46.7105 17.184 45.7049C16.8564 45.1552 16.3187 44.9177 15.8203 44.5564C15.2973 44.1772 14.8729 43.4385 14.277 43.1957C13.1574 42.7395 11.1701 43.125 9.96095 43.125C9.96095 45.5021 9.41029 48.6337 10.7189 50.7422C11.683 52.2957 13.7175 53.2227 14.528 54.8438C15.0447 55.8771 13.9552 58.2807 15.13 58.942C15.6891 59.2568 16.7193 59.0625 17.3438 59.0625H22.7344H27.6563C28.2036 59.0625 29.0598 59.2247 29.4804 58.7909C30.112 58.1395 29.7131 56.5271 30.0119 55.6641C30.4238 54.4741 31.2313 53.5232 31.4987 52.2656C32.113 49.3767 31.6406 45.9593 31.6406 43.0078L26.3672 43.125H16.7578Z" fill="#ECCA98"/>
        <path d="M14.4141 43.125C15.0408 44.3331 16.4004 44.644 17.1266 45.7049C17.8655 46.7843 17.5068 48.2298 17.5833 49.4531C17.6166 49.9854 17.902 50.5261 18.5156 50.4836C19.8142 50.3936 19.442 47.0552 19.2306 46.1719C18.6105 43.5809 16.7432 43.125 14.4141 43.125Z" fill="white"/>
    </g>
    <defs>
        <clipPath id="clip0_18_504">
            <rect width="60" height="60" fill="white"/>
        </clipPath>
    </defs>
</svg>