<svg width="60" height="60" viewBox="0 0 60 60" fill="none" xmlns="http://www.w3.org/2000/svg">
    <path d="M32.9297 4.10157C30.8056 2.9887 27.4728 3.18023 26.9531 6.09375C25.7766 5.4749 24.5246 5.10177 23.2031 5.5721C20.7449 6.447 20.1388 9.48304 21.5625 11.4844C18.7327 11.9891 18.2128 15.3836 19.5703 17.4609C16.1989 18.0622 16.0919 22.6317 18.5156 24.375V24.4922C15.7124 26.4668 13.3252 29.5654 10.8984 31.9922C7.8651 35.0255 4.18402 37.9567 1.5858 41.3672C0.00561363 43.4414 1.23993 46.7191 3.74997 47.2835C6.55111 47.9134 8.324 45.465 10.0781 43.7109L22.6172 31.1719V36.9141C22.6172 38.1128 22.5058 39.3962 22.9159 40.5469C23.7463 42.8777 26.6129 43.5314 28.5933 42.2404C30.4309 41.0425 29.7725 39.4507 30.3109 37.7344C30.5574 36.9481 31.4997 36.2412 32.3437 36.3948C34.1734 36.7282 33.9843 38.6793 33.9843 40.0781C33.9843 43.0548 33.1534 47.9426 37.2656 48.4818C39.4401 48.7669 41.2529 47.1136 41.4643 45C42.0355 39.292 41.445 33.2783 41.4845 27.5391C41.4913 26.5459 42.2319 26.0552 42.6195 25.1953C43.1767 23.9593 42.8776 22.4474 42.1875 21.3281C45.1925 20.876 45.2846 17.452 44.1797 15.3516C46.4911 15.1136 47.4845 12.0983 46.6026 10.1953C45.512 7.84189 42.6001 5.80322 40.7812 3.98438C39.9334 3.13656 39.1104 2.08909 37.9687 1.6324C35.9793 0.836614 33.3261 1.8779 32.9297 4.10157Z" fill="#545454"/>
    <path d="M36.3281 3.34663C34.9119 3.51 34.2993 5.05859 35.0356 6.21094C36.4243 8.3845 38.9575 10.2467 40.7813 12.0703C41.5122 12.8012 42.3204 13.7711 43.4766 13.5538C44.7506 13.3143 45.2971 11.8509 44.6479 10.7813C43.3284 8.60772 40.7042 6.71981 38.9063 4.92188C38.2126 4.22821 37.4325 3.21922 36.3281 3.34663ZM30.4688 5.35889C28.8002 5.41017 28.3491 7.26525 29.242 8.4375C31.6131 11.5501 34.9664 14.2242 37.7344 16.9922C38.617 17.8748 39.833 19.6514 41.25 19.5439C42.7145 19.4327 43.3875 17.8089 42.5799 16.6406C41.8292 15.5548 40.6584 14.6428 39.7266 13.7109L33.9844 7.96875C33.066 7.05033 31.9137 5.31449 30.4688 5.35889ZM39.9609 22.0313C38.8627 20.4722 37.2077 19.1609 35.8594 17.8125L28.0078 9.96094C26.9399 8.89296 24.7747 5.9955 23.1797 7.99046C21.5988 9.96774 25.1627 12.3893 26.3672 13.5938L32.2266 19.4531C32.9706 20.1971 33.9209 21.5914 34.9219 21.9606C36.2759 22.4598 38.5166 22.0313 39.9609 22.0313ZM29.6484 24.4922C29.7792 23.2154 30.7872 22.3177 31.9922 22.0313C30.1082 19.3567 27.159 17.0809 24.8438 14.7656C23.9327 13.8546 22.7899 12.6475 21.4576 13.6702C20.5365 14.3773 20.631 15.6114 21.3408 16.4063C23.0598 18.3311 25.011 20.0891 26.8359 21.9141C27.6767 22.7548 28.5633 23.9862 29.6484 24.4922ZM20.2734 19.2812C19.0512 19.5488 18.3704 20.9429 19.0697 22.0313C20.4897 24.2414 23.1022 26.1491 24.9609 28.0078C25.6527 28.6996 26.4275 29.726 27.539 29.4683C28.6491 29.2109 29.3998 27.8602 28.8176 26.8359C28.3607 26.0319 27.4848 25.3754 26.8359 24.7266L22.8516 20.7422C22.1522 20.0428 21.3919 19.0364 20.2734 19.2812Z" fill="white"/>
    <path d="M31.6406 22.0956C30.5999 22.2911 29.0709 23.8615 29.8211 24.9609C30.8598 26.4834 32.7189 27.233 34.5439 26.6815C35.2002 26.4832 35.0594 25.436 34.8653 24.9609C34.5081 24.087 32.6771 21.9008 31.6406 22.0956Z" fill="#ECCA98"/>
    <path d="M34.9219 22.0312C35.7654 23.2288 37.7404 25.6895 39.375 25.5234C40.945 25.3639 41.6992 22.9771 40.1844 22.1517C39.7396 21.9093 39.0445 22.0312 38.5547 22.0312H34.9219ZM42.5391 22.0312C43.2004 23.7483 43.0036 25.3912 41.4844 26.6016V26.7187H44.6484V22.0312H42.5391ZM46.4062 22.0312V27.5391V30.293V33.0469C46.4062 34.3513 46.3446 36.4172 48.2812 36.067C49.7391 35.8034 49.3359 33.7616 49.3359 32.6953V27.3633V22.0312H46.4062ZM51.0937 22.0312V26.7187H54.9609C54.9609 24.975 55.1735 22.6189 52.9687 22.0936C52.374 21.9519 51.7015 22.0312 51.0937 22.0312Z" fill="#ECCA98"/>
    <path d="M42.8906 23.3203V24.2578H43.0078L42.8906 23.3203Z" fill="#ECCA98"/>
    <path d="M19.8047 26.0562C19.2797 26.1871 18.7664 26.9367 18.3984 27.3047L15.3516 30.3516L7.26561 38.4375C5.96563 39.7375 4.28169 41.0224 3.24055 42.5391C2.34388 43.8452 3.38998 45.4842 4.92186 45.3391C6.51918 45.188 8.29612 42.5632 9.37499 41.4844L18.2812 32.5781C19.412 31.4474 21.4911 30.0366 22.1775 28.5937C22.4634 27.9929 20.4232 25.9019 19.8047 26.0562Z" fill="white"/>
    <path d="M31.7578 26.7188C32.5328 27.7595 33.8912 27.7328 34.6875 26.7188H31.7578ZM36.7969 26.7188L35.7422 28.5938H39.4922V27.5391C38.478 27.5181 37.6811 27.1839 36.7969 26.7188Z" fill="white"/>
    <path d="M30.8203 28.7109C30.4242 29.8534 29.6241 30.7932 28.4766 31.2342C27.9989 31.4177 27.2964 31.3276 26.9179 31.7067C26.4819 32.1434 26.309 33.0544 26.1506 33.6328C25.6785 35.3573 25.4268 37.1191 25.4297 38.9062C25.4317 40.1306 25.5995 41.4941 27.1874 40.8418C28.6697 40.2329 28.1587 38.7233 28.4201 37.5C28.8627 35.4284 31.1303 33.991 33.1641 34.6581C36.6879 35.8139 35.8594 40.1278 35.8594 43.0078C35.8594 44.0328 35.6371 45.3558 36.4675 46.132C37.9692 47.5357 39.5897 45.9062 39.6089 44.2969C39.6715 39.0642 39.6094 33.8269 39.6094 28.5937L35.8594 28.6106L33.3985 29.4693L30.8203 28.7109ZM41.4844 28.5937V39.9609C41.4844 41.7026 41.7872 43.7647 41.4237 45.4687C40.8662 48.082 37.6665 49.4614 35.5078 47.7668C33.219 45.97 33.9844 42.3001 33.9844 39.7266C33.9844 38.4932 34.0787 36.7229 32.461 36.4704C29.861 36.0644 30.5605 38.8364 30.0352 40.3125C29.3978 42.1036 27.808 42.8904 26.0157 42.8906C26.1337 44.2421 26.8283 45.6131 27.2989 46.875L30.1114 54.375C30.6162 55.7291 30.9706 57.5634 32.3438 58.3105C33.3282 58.8459 34.7748 58.5937 35.8594 58.5937H43.711H49.9219C51.0918 58.5937 52.2181 58.6478 53.0403 57.6516C54.3305 56.088 54.849 53.3328 55.5528 51.4453C57.5094 46.1968 59.787 41.2397 58.8375 35.5078C58.5346 33.6786 57.9344 31.8518 57.0206 30.2344C56.751 29.7571 56.4654 29.0071 55.9774 28.7142C55.5832 28.4776 54.9334 28.5937 54.4922 28.5937H51.0938C51.0938 30.6994 51.6932 33.9057 50.8647 35.8594C49.7794 38.4182 46.3859 38.4278 45.0625 36.0937C43.9883 34.1992 44.6485 30.7148 44.6485 28.5937H41.4844Z" fill="#ECCA98"/>
    <path d="M32.9296 29.4141V29.5312H33.5156L32.9296 29.4141Z" fill="#ECCA98"/>
    <path d="M24.6094 30.4688V37.6172C24.6094 38.7961 24.489 39.9005 25.5469 40.6641C25.5196 37.3691 25.743 34.6433 26.9531 31.5234L24.6094 30.4688Z" fill="white"/>
    <path d="M27.8906 31.2891V31.4062H28.2422L27.8906 31.2891ZM26.9531 31.4062V31.5234H27.4219L26.9531 31.4062Z" fill="#ECCA98"/>
    <path d="M31.5234 34.4531V34.5703H32.6953L31.5234 34.4531Z" fill="#ECCA98"/>
    <path d="M31.7578 36.3281V36.4453H32.4609L31.7578 36.3281ZM28.3594 37.3828V37.7344H28.4766L28.3594 37.3828ZM35.7422 37.5V37.8516H35.8594L35.7422 37.5ZM30.1172 39.6094V39.9609H30.2344L30.1172 39.6094Z" fill="#ECCA98"/>
    <path d="M41.3671 45.2344V45.5859H41.4843L41.3671 45.2344ZM36.7968 48.3984V48.5156H37.1484L36.7968 48.3984Z" fill="#ECCA98"/>
</svg>